<?xml version="1.0" encoding="UTF-8"?>
<!DOCTYPE svg PUBLIC "-//W3C//DTD SVG 1.1//EN" "http://www.w3.org/Graphics/SVG/1.1/DTD/svg11.dtd">
<!-- Creator: CorelDRAW 2020 (64 Bit) -->
<svg xmlns="http://www.w3.org/2000/svg" xml:space="preserve" width="34px" height="35px" version="1.1" style="shape-rendering:geometricPrecision; text-rendering:geometricPrecision; image-rendering:optimizeQuality; fill-rule:evenodd; clip-rule:evenodd"
viewBox="0 0 0.883 0.929"
 xmlns:xlink="http://www.w3.org/1999/xlink"
 xmlns:xodm="http://www.corel.com/coreldraw/odm/2003">
 <defs>
  <style type="text/css">
   <![CDATA[
    .fil0 {fill:red;fill-rule:nonzero}
   ]]>
  </style>
 </defs>
 <g id="Camada_x0020_1">
  <metadata id="CorelCorpID_0Corel-Layer"/>
  <path id="Carrinho" class="fil0" d="M0.222 0.184l0.635 0.086 0.026 0.003 0 0.027 0 0.213 0 0.002 0 0.004c-0.004,0.022 -0.013,0.043 -0.028,0.06 -0.015,0.017 -0.035,0.031 -0.063,0.04l-0.004 0.002 -0.005 0 -0.541 0 -0.005 0 -0.005 -0.002c-0.003,-0.001 -0.007,-0.003 -0.01,-0.004l0 0.056c0.003,0.014 0.008,0.024 0.016,0.031 0.009,0.008 0.021,0.013 0.037,0.015l0.453 0c0.006,0 0.012,0.002 0.017,0.005 0.001,0 0.002,0 0.004,0 0.028,0 0.054,0.011 0.073,0.03 0.019,0.019 0.03,0.045 0.03,0.074 0,0.028 -0.011,0.054 -0.03,0.073 -0.019,0.019 -0.045,0.03 -0.073,0.03 -0.029,0 -0.055,-0.011 -0.074,-0.03 -0.018,-0.019 -0.03,-0.045 -0.03,-0.073 0,-0.018 0.004,-0.034 0.012,-0.049l-0.221 0c0.008,0.015 0.012,0.031 0.012,0.049 0,0.028 -0.012,0.054 -0.03,0.073 -0.019,0.019 -0.045,0.03 -0.074,0.03 -0.028,0 -0.054,-0.011 -0.073,-0.03 -0.019,-0.019 -0.03,-0.045 -0.03,-0.073 0,-0.019 0.005,-0.037 0.013,-0.052 -0.022,-0.005 -0.041,-0.013 -0.056,-0.027 -0.019,-0.016 -0.031,-0.039 -0.036,-0.069l0 -0.002 0 -0.002 0 -0.554 -0.144 -0.062c-0.015,-0.007 -0.022,-0.025 -0.016,-0.04 0.007,-0.015 0.025,-0.022 0.04,-0.016l0.162 0.07 0.018 0.008 0 0.02 0 0.084zm0.529 0.583c-0.008,0 -0.021,0 -0.035,0.01 -0.003,0.002 -0.006,0.005 -0.009,0.007 -0.01,0.011 -0.017,0.025 -0.017,0.042 0,0.016 0.007,0.03 0.017,0.041 0.011,0.011 0.026,0.017 0.042,0.017 0.016,0 0.03,-0.006 0.041,-0.017 0.011,-0.011 0.017,-0.025 0.017,-0.041 0,-0.017 -0.006,-0.031 -0.017,-0.042 -0.01,-0.01 -0.024,-0.016 -0.039,-0.017zm-0.374 0.01l-0.066 0c-0.003,0.002 -0.005,0.005 -0.008,0.007 -0.011,0.011 -0.017,0.025 -0.017,0.042 0,0.016 0.006,0.03 0.017,0.041 0.011,0.011 0.025,0.017 0.041,0.017 0.016,0 0.031,-0.006 0.042,-0.017 0.01,-0.011 0.017,-0.025 0.017,-0.041 0,-0.017 -0.007,-0.031 -0.017,-0.042 -0.003,-0.002 -0.006,-0.005 -0.009,-0.007zm0.446 -0.451l-0.601 -0.082 0 0.256c0.001,0.017 0.003,0.032 0.009,0.043 0.003,0.008 0.009,0.014 0.017,0.017l0.53 0c0.014,-0.005 0.024,-0.012 0.031,-0.02 0.007,-0.008 0.012,-0.018 0.014,-0.029l0 -0.185z"/>
 </g>
</svg>
