<?xml version="1.0" encoding="UTF-8"?>
<!DOCTYPE svg PUBLIC "-//W3C//DTD SVG 1.1//EN" "http://www.w3.org/Graphics/SVG/1.1/DTD/svg11.dtd">
<!-- Creator: CorelDRAW 2020 (64 Bit) -->
<svg xmlns="http://www.w3.org/2000/svg" xml:space="preserve" width="1901px" height="341px" version="1.1" style="shape-rendering:geometricPrecision; text-rendering:geometricPrecision; image-rendering:optimizeQuality; fill-rule:evenodd; clip-rule:evenodd"
viewBox="0 0 1379.429 247.093"
 xmlns:xlink="http://www.w3.org/1999/xlink"
 xmlns:xodm="http://www.corel.com/coreldraw/odm/2003">
 <defs>
  <style type="text/css">
   <![CDATA[
    .str0 {stroke:white;stroke-width:1.088;stroke-miterlimit:22.9256}
    .fil1 {fill:none}
    .fil2 {fill:#B5ACA6}
    .fil0 {fill:#DCD6CE}
    .fil3 {fill:white}
   ]]>
  </style>
 </defs>
 <g id="Camada_x0020_1">
  <metadata id="CorelCorpID_0Corel-Layer"/>
  <g id="_1521118585456">
   <rect id="fundo" class="fil0" x="0.385" width="1378.659" height="246.708"/>
   <path id="Linhas" class="fil1 str0" d="M1363.739 246.708l15.305 -15.305m-29.656 15.305l29.656 -29.656m-44.007 29.656l44.007 -44.007m-58.358 44.007l58.358 -58.358m-72.709 58.358l72.709 -72.709m-87.06 72.709l87.06 -87.06m-101.411 87.06l101.411 -101.412m-115.762 101.412l115.762 -115.763m-130.113 115.763l130.113 -130.114m-144.464 130.114l144.464 -144.465m-158.816 144.465l158.816 -158.817m-173.167 158.817l173.167 -173.168m-187.518 173.168l187.518 -187.519m-201.869 187.519l201.869 -201.87m-216.22 201.87l216.22 -216.221m-230.571 216.221l230.571 -230.572m-244.922 230.572l244.922 -244.923m-259.273 244.923l246.142 -246.144m-260.493 246.144l246.142 -246.144m-260.493 246.144l246.142 -246.144m-260.494 246.144l246.143 -246.144m-260.494 246.144l246.143 -246.144m-260.494 246.144l246.143 -246.144m-260.494 246.144l246.143 -246.144m-260.494 246.144l246.143 -246.144m-260.494 246.144l246.143 -246.144m-260.494 246.144l246.142 -246.144m-260.493 246.144l246.142 -246.144m-260.493 246.144l246.142 -246.144m-260.493 246.144l246.142 -246.144m-260.494 246.144l246.143 -246.144m-260.494 246.144l246.143 -246.144m-260.494 246.144l246.143 -246.144m-260.494 246.144l246.143 -246.144m-260.494 246.144l246.143 -246.144m-260.494 246.144l246.143 -246.144m-260.494 246.144l246.143 -246.144m-260.494 246.144l246.142 -246.144m-260.493 246.144l246.142 -246.144m-260.493 246.144l246.142 -246.144m-260.494 246.144l246.143 -246.144m-260.494 246.144l246.143 -246.144m-260.494 246.144l246.143 -246.144m-260.494 246.144l246.143 -246.144m-260.494 246.144l246.143 -246.144m-260.494 246.144l246.143 -246.144m-260.494 246.144l246.143 -246.144m-260.494 246.144l246.142 -246.144m-260.493 246.144l246.142 -246.144m-260.493 246.144l246.142 -246.144m-260.493 246.144l246.142 -246.144m-260.494 246.144l246.143 -246.144m-260.494 246.144l246.143 -246.144m-260.494 246.144l246.143 -246.144m-260.494 246.144l246.143 -246.144m-260.494 246.144l246.143 -246.144m-260.494 246.144l246.143 -246.144m-260.494 246.144l246.142 -246.144m-260.493 246.144l246.142 -246.144m-260.493 246.144l246.142 -246.144m-260.493 246.144l246.142 -246.144m-260.494 246.144l246.143 -246.144m-260.494 246.144l246.143 -246.144m-260.494 246.144l246.143 -246.144m-260.494 246.144l246.143 -246.144m-260.494 246.144l246.143 -246.144m-260.494 246.144l246.143 -246.144m-260.494 246.144l246.142 -246.144m-260.493 246.144l246.142 -246.144m-260.493 246.144l246.142 -246.144m-260.493 246.144l246.142 -246.144m-260.494 246.144l246.143 -246.144m-260.494 246.144l246.143 -246.144m-260.494 246.144l246.143 -246.144m-260.494 246.144l246.143 -246.144m-260.494 246.144l246.143 -246.144m-260.494 246.144l246.143 -246.144m-260.494 246.144l246.142 -246.144m-260.493 246.144l246.142 -246.144m-260.493 246.144l246.142 -246.144m-260.493 246.144l246.142 -246.144m-260.494 246.144l246.143 -246.144m-260.494 246.144l246.143 -246.144m-260.494 246.144l246.143 -246.144m-260.494 246.144l246.143 -246.144m-260.494 246.144l246.143 -246.144m-260.494 246.144l246.143 -246.144m-260.494 246.144l246.143 -246.144m-260.494 246.144l246.142 -246.144m-260.493 246.144l246.142 -246.144m-260.493 246.144l246.142 -246.144m-260.494 246.144l246.143 -246.144m-260.494 246.144l246.143 -246.144m-260.494 246.144l246.143 -246.144m-260.494 246.144l246.143 -246.144m-260.494 16.526l16.526 -16.526m-16.526 30.877l30.877 -30.877m-30.877 45.228l45.228 -45.228m-45.228 59.579l59.579 -59.579m-59.579 73.931l73.93 -73.931m-73.93 88.282l88.281 -88.282m-88.281 102.633l102.632 -102.633m-102.632 116.984l116.983 -116.984m-116.983 131.335l131.334 -131.335m-131.334 145.686l145.685 -145.686m-145.685 160.037l160.036 -160.037m-160.036 174.388l174.387 -174.388m-174.387 188.739l188.738 -188.739m-188.738 203.09l203.089 -203.09m-203.089 217.442l217.441 -217.442m-217.441 231.793l231.792 -231.793m-231.792 246.144l246.143 -246.144"/>
   <polygon class="fil2" points="0.385,0 71.466,0 0.385,71.081 "/>
   <polygon class="fil3" points="71.466,71.081 0.386,71.081 71.466,0.001 "/>
  </g>
 </g>
</svg>
