<?xml version="1.0" encoding="UTF-8"?>
<!DOCTYPE svg PUBLIC "-//W3C//DTD SVG 1.1//EN" "http://www.w3.org/Graphics/SVG/1.1/DTD/svg11.dtd">
<!-- Creator: CorelDRAW 2020 (64 Bit) -->
<svg xmlns="http://www.w3.org/2000/svg" xml:space="preserve" width="1901px" height="341px" version="1.1" style="shape-rendering:geometricPrecision; text-rendering:geometricPrecision; image-rendering:optimizeQuality; fill-rule:evenodd; clip-rule:evenodd"
viewBox="0 0 1782.701 319.33"
 xmlns:xlink="http://www.w3.org/1999/xlink"
 xmlns:xodm="http://www.corel.com/coreldraw/odm/2003">
 <defs>
  <style type="text/css">
   <![CDATA[
    .str0 {stroke:white;stroke-width:1.407;stroke-miterlimit:22.9256}
    .fil1 {fill:none}
    .fil2 {fill:#B5ACA6}
    .fil0 {fill:#DCD6CE}
    .fil3 {fill:white}
   ]]>
  </style>
 </defs>
 <g id="Camada_x0020_1">
  <metadata id="CorelCorpID_0Corel-Layer"/>
  <g id="_1791110306352">
   <rect id="fundo" class="fil0" x="0.498" y="0.498" width="1781.705" height="318.832"/>
   <path id="Linhas" class="fil1 str0" d="M20.277 0.498l-19.779 19.779m38.325 -19.779l-38.325 38.325m56.872 -38.325l-56.872 56.872m75.418 -56.872l-75.418 75.418m93.965 -75.418l-93.965 93.965m112.512 -93.965l-112.512 112.512m131.058 -112.512l-131.058 131.058m149.605 -131.058l-149.605 149.605m168.151 -149.605l-168.151 168.152m186.698 -168.152l-186.698 186.699m205.245 -186.699l-205.245 205.245m223.791 -205.245l-223.791 223.792m242.338 -223.792l-242.338 242.338m260.884 -242.338l-260.884 260.885m279.431 -260.885l-279.431 279.432m297.978 -279.432l-297.978 297.978m316.524 -297.978l-316.524 316.525m335.071 -316.525l-318.102 318.102m336.648 -318.102l-318.101 318.102m336.648 -318.102l-318.102 318.102m336.648 -318.102l-318.101 318.102m336.648 -318.102l-318.102 318.102m336.649 -318.102l-318.102 318.102m336.648 -318.102l-318.101 318.102m336.648 -318.102l-318.102 318.102m336.648 -318.102l-318.101 318.102m336.648 -318.102l-318.102 318.102m336.649 -318.102l-318.102 318.102m336.648 -318.102l-318.101 318.102m336.648 -318.102l-318.102 318.102m336.648 -318.102l-318.101 318.102m336.648 -318.102l-318.102 318.102m336.649 -318.102l-318.102 318.102m336.648 -318.102l-318.101 318.102m336.648 -318.102l-318.102 318.102m336.648 -318.102l-318.101 318.102m336.648 -318.102l-318.102 318.102m336.649 -318.102l-318.102 318.102m336.648 -318.102l-318.101 318.102m336.648 -318.102l-318.102 318.102m336.648 -318.102l-318.101 318.102m336.648 -318.102l-318.102 318.102m336.649 -318.102l-318.102 318.102m336.648 -318.102l-318.101 318.102m336.648 -318.102l-318.102 318.102m336.648 -318.102l-318.101 318.102m336.648 -318.102l-318.102 318.102m336.649 -318.102l-318.102 318.102m336.648 -318.102l-318.102 318.102m336.649 -318.102l-318.102 318.102m336.648 -318.102l-318.101 318.102m336.648 -318.102l-318.102 318.102m336.648 -318.102l-318.101 318.102m336.648 -318.102l-318.102 318.102m336.649 -318.102l-318.102 318.102m336.648 -318.102l-318.101 318.102m336.648 -318.102l-318.102 318.102m336.648 -318.102l-318.101 318.102m336.648 -318.102l-318.102 318.102m336.649 -318.102l-318.102 318.102m336.648 -318.102l-318.101 318.102m336.648 -318.102l-318.102 318.102m336.648 -318.102l-318.101 318.102m336.648 -318.102l-318.102 318.102m336.649 -318.102l-318.102 318.102m336.648 -318.102l-318.101 318.102m336.648 -318.102l-318.102 318.102m336.648 -318.102l-318.101 318.102m336.648 -318.102l-318.102 318.102m336.649 -318.102l-318.102 318.102m336.648 -318.102l-318.101 318.102m336.648 -318.102l-318.102 318.102m336.648 -318.102l-318.101 318.102m336.648 -318.102l-318.102 318.102m336.649 -318.102l-318.102 318.102m336.648 -318.102l-318.101 318.102m336.648 -318.102l-318.102 318.102m336.648 -318.102l-318.101 318.102m336.648 -318.102l-318.102 318.102m336.649 -318.102l-318.102 318.102m336.648 -318.102l-318.102 318.102m336.649 -318.102l-318.102 318.102m336.648 -318.102l-318.101 318.102m336.648 -318.102l-318.102 318.102m336.648 -318.102l-318.101 318.102m336.648 -318.102l-318.102 318.102m336.649 -318.102l-318.102 318.102m336.648 -318.102l-318.101 318.102m336.648 -318.102l-318.102 318.102m336.648 -318.102l-318.101 318.102m336.648 -318.102l-318.102 318.102m336.649 -318.102l-318.102 318.102m336.648 -318.102l-318.101 318.102m336.648 -318.102l-318.102 318.102m336.648 -318.102l-318.101 318.102m336.648 -21.357l-21.357 21.357m21.357 -39.903l-39.903 39.903m39.903 -58.45l-58.45 58.45m58.45 -76.997l-76.997 76.997m76.997 -95.543l-95.543 95.543m95.543 -114.09l-114.09 114.09m114.09 -132.636l-132.636 132.636m132.636 -151.183l-151.183 151.183m151.183 -169.73l-169.729 169.73m169.729 -188.276l-188.275 188.276m188.275 -206.823l-206.822 206.823m206.822 -225.369l-225.369 225.369m225.369 -243.916l-243.915 243.916m243.915 -262.463l-262.462 262.463m262.462 -281.009l-281.008 281.009m281.008 -299.556l-299.555 299.556m299.555 -318.102l-318.102 318.102"/>
   <polygon class="fil2" points="1782.203,319.33 1690.342,319.33 1782.203,227.469 "/>
   <polygon class="fil3" points="1690.341,227.468 1782.202,227.468 1690.341,319.329 "/>
  </g>
 </g>
</svg>
