<?xml version="1.0" encoding="UTF-8"?>
<!DOCTYPE svg PUBLIC "-//W3C//DTD SVG 1.1//EN" "http://www.w3.org/Graphics/SVG/1.1/DTD/svg11.dtd">
<!-- Creator: CorelDRAW 2020 (64 Bit) -->
<svg xmlns="http://www.w3.org/2000/svg" xml:space="preserve" width="66px" height="81px" version="1.1" style="shape-rendering:geometricPrecision; text-rendering:geometricPrecision; image-rendering:optimizeQuality; fill-rule:evenodd; clip-rule:evenodd"
viewBox="0 0 0.967 1.195"
 xmlns:xlink="http://www.w3.org/1999/xlink"
 xmlns:xodm="http://www.corel.com/coreldraw/odm/2003">
 <defs>
  <style type="text/css">
   <![CDATA[
    .fil0 {fill:white}
   ]]>
  </style>
 </defs>
 <g id="Camada_x0020_1">
  <metadata id="CorelCorpID_0Corel-Layer"/>
  <path class="fil0" d="M0.486 0.276c0.162,-0.029 0.242,-0.119 0.23,-0.276 -0.152,0.032 -0.231,0.122 -0.23,0.276zm0.002 0.069c-0.096,-0.009 -0.121,-0.072 -0.226,-0.052 -0.099,0.019 -0.179,0.081 -0.223,0.17 -0.074,0.146 -0.03,0.323 0.03,0.467 0.048,0.113 0.109,0.2 0.175,0.24 0.044,0.028 0.072,0.032 0.121,0.014 0.024,-0.009 0.049,-0.021 0.074,-0.03 0.043,-0.014 0.083,-0.017 0.126,-0.004 0.057,0.016 0.114,0.049 0.171,0.037 0.07,-0.007 0.188,-0.174 0.231,-0.312 -0.211,-0.099 -0.201,-0.368 -0.024,-0.472 -0.213,-0.231 -0.353,-0.053 -0.455,-0.058z"/>
 </g>
</svg>
