<?xml version="1.0" encoding="UTF-8"?>
<!DOCTYPE svg PUBLIC "-//W3C//DTD SVG 1.1//EN" "http://www.w3.org/Graphics/SVG/1.1/DTD/svg11.dtd">
<!-- Creator: CorelDRAW 2020 (64 Bit) -->
<svg xmlns="http://www.w3.org/2000/svg" xml:space="preserve" width="62px" height="62px" version="1.1" style="shape-rendering:geometricPrecision; text-rendering:geometricPrecision; image-rendering:optimizeQuality; fill-rule:evenodd; clip-rule:evenodd"
viewBox="0 0 5.272 5.272"
 xmlns:xlink="http://www.w3.org/1999/xlink"
 xmlns:xodm="http://www.corel.com/coreldraw/odm/2003">
 <defs>
  <style type="text/css">
   <![CDATA[
    .fil0 {fill:red}
   ]]>
  </style>
 </defs>
 <g id="Camada_x0020_1">
  <metadata id="CorelCorpID_0Corel-Layer"/>
  <path class="fil0" d="M2.636 0c1.456,0 2.636,1.18 2.636,2.636 0,0.744 -0.308,1.416 -0.804,1.896 -0.069,-0.386 -0.256,-0.731 -0.522,-0.997 -0.198,-0.197 -0.439,-0.351 -0.709,-0.446 0.044,-0.032 0.085,-0.067 0.123,-0.105l0.001 0c0.191,-0.191 0.31,-0.456 0.31,-0.747 0,-0.292 -0.119,-0.556 -0.31,-0.747 -0.191,-0.191 -0.455,-0.31 -0.747,-0.31 -0.291,0 -0.556,0.119 -0.747,0.31l0 0.001c-0.191,0.191 -0.309,0.455 -0.309,0.746 0,0.291 0.118,0.555 0.309,0.746l0.001 0.001c0.038,0.038 0.079,0.073 0.123,0.105 -0.269,0.095 -0.511,0.249 -0.709,0.446 -0.257,0.258 -0.44,0.589 -0.515,0.96 -0.474,-0.476 -0.767,-1.133 -0.767,-1.859 0,-1.456 1.18,-2.636 2.636,-2.636zm1.509 4.798c-0.427,0.299 -0.948,0.474 -1.509,0.474 -0.58,0 -1.116,-0.187 -1.551,-0.504 0.025,-0.384 0.191,-0.729 0.446,-0.984 0.277,-0.277 0.66,-0.449 1.083,-0.449 0.423,0 0.807,0.172 1.084,0.449 0.262,0.262 0.429,0.619 0.447,1.014zm-1.032 -3.06c-0.128,-0.127 -0.304,-0.206 -0.499,-0.206 -0.194,0 -0.371,0.079 -0.498,0.206l0 0c-0.128,0.127 -0.207,0.304 -0.207,0.499 0,0.195 0.079,0.371 0.207,0.499 0.127,0.127 0.303,0.206 0.498,0.206 0.195,0 0.372,-0.079 0.499,-0.206l0 -0.001c0.127,-0.127 0.206,-0.304 0.206,-0.498 0,-0.195 -0.079,-0.371 -0.206,-0.499z"/>
 </g>
</svg>
