<?xml version="1.0" encoding="UTF-8"?>
<!DOCTYPE svg PUBLIC "-//W3C//DTD SVG 1.1//EN" "http://www.w3.org/Graphics/SVG/1.1/DTD/svg11.dtd">
<!-- Creator: CorelDRAW 2020 (64 Bit) -->
<svg xmlns="http://www.w3.org/2000/svg" xml:space="preserve" width="211px" height="160px" version="1.1" style="shape-rendering:geometricPrecision; text-rendering:geometricPrecision; image-rendering:optimizeQuality; fill-rule:evenodd; clip-rule:evenodd"
viewBox="0 0 14.761 11.222"
 xmlns:xlink="http://www.w3.org/1999/xlink"
 xmlns:xodm="http://www.corel.com/coreldraw/odm/2003">
 <defs>
  <style type="text/css">
   <![CDATA[
    .fil1 {fill:none}
    .fil0 {fill:red;fill-rule:nonzero}
   ]]>
  </style>
 </defs>
 <g id="Camada_x0020_1">
  <metadata id="CorelCorpID_0Corel-Layer"/>
  <g id="_1982897181216">
   <g id="_1982753244704">
    <path id="lupa" class="fil0" d="M6.159 6.394l-0.227 -0.128 0.325 -0.561 0.227 0.128 0.118 0.443 -0.443 0.118 0 0zm0.443 -0.118l-0.157 0.276 -0.286 -0.158 0.443 -0.118zm0.434 -0.749l-0.434 0.749 -0.561 -0.325 0.423 -0.749 0.463 -0.098 0.109 0.423 0 0zm-0.572 -0.325l0.178 -0.305 0.285 0.207 -0.463 0.098zm0.67 0.02l-0.325 0.571 0 0 -0.01 -0.01 -0.01 -0.009 0 0 -0.019 0 0 -0.01 -0.01 -0.01 -0.01 0 0 0 -0.01 -0.01 -0.01 0 -0.01 -0.01 -0.01 0 -0.009 -0.01 0 0 -0.01 -0.01 -0.01 0 -0.01 0 0 -0.009 -0.01 -0.01 -0.01 0 -0.01 -0.01 -0.009 0 0 -0.01 -0.01 0 -0.01 -0.01 -0.01 0 0 -0.01 -0.01 0 -0.01 0 -0.01 -0.01 0 -0.01 -0.01 0 0.365 -0.532 0.01 0 0.01 0 0 0.01 0.01 0 0.009 0.01 0 0 0.01 0 0 0.01 0.01 0 0.01 0.01 0 0 0.01 0 0.01 0.01 0 0 0.01 0.01 0.009 0 0 0 0.01 0.009 0.01 0 0 0.01 0.01 0 0 0 0.01 0.01 0 0 0.01 0.01 0.01 0 0 0 0.01 0.01 0.009 0 0 0 0.01 0.01 0.01 0 0 0 0 0 0 0zm0.345 0.561l-0.562 -0.315 0.148 0.453 -0.01 0 0 -0.01 -0.009 0 -0.01 -0.009 -0.01 0 -0.01 0 -0.01 -0.01 -0.01 0 0 -0.01 -0.01 0 -0.01 -0.01 -0.009 0 0 0 -0.01 -0.01 -0.01 0 -0.01 -0.01 -0.01 0 -0.01 0 -0.01 -0.01 0 0 -0.009 -0.009 -0.01 0 -0.01 0 -0.01 -0.01 0 -0.01 -0.01 0 -0.01 0 -0.01 -0.01 -0.009 0 0 -0.01 -0.01 0 -0.01 0 0.325 -0.571 0 0 0.01 0.01 0.01 0 0 0 0 0.009 0.01 0 0.009 0 0 0.01 0.01 0 0.01 0.01 0 0 0.01 0 0.01 0 0 0.01 0.01 0 0.01 0.01 0 0 0.009 0 0.01 0.01 0 0 0.01 0 0.01 0.01 0 0 0.01 0 0.01 0.009 0 0 0.01 0 0.01 0 0.009 0.01 0 0 0.01 0.01 0.01 0 0.138 0.453 0 0zm-0.138 -0.453l0.315 0.138 -0.177 0.315 -0.138 -0.453zm-0.847 0.877l0.423 -0.739 0.562 0.315 -0.424 0.749 -0.433 0.118 -0.128 -0.443 0 0zm0.128 0.443l-0.286 -0.157 0.158 -0.286 0.128 0.443zm0.226 0.129l-0.226 -0.129 0.315 -0.561 0.227 0.128 0.118 0.443 -0.434 0.119 0 0zm0.316 -0.562l0.285 0.158 -0.167 0.285 -0.118 -0.443zm-2.838 4.345l2.394 -4.227 0.562 0.325 -2.394 4.217 0 0 -0.562 -0.315zm-0.355 0.571l0.326 -0.561 0 0 0 0 0 0 0 0 0 0 0 0 0 0 0 0 0.01 0 0 0 0 0 0 0 0 0 0 0 0 0 0 0 0 0 0.009 0 0 0 0 0 0 0 0 0 0 0 0 0 0 0 0 0 0 -0.01 0.01 0 0 0 0 0 0 0 0 0 0 0 0.562 0.315 -0.02 0.04 -0.01 0.019 -0.029 0.03 -0.02 0.029 -0.02 0.03 -0.029 0.02 -0.02 0.019 -0.03 0.02 -0.019 0.02 -0.03 0.02 -0.03 0.019 -0.029 0.01 -0.03 0.01 -0.029 0.02 -0.03 0.01 -0.029 0.01 -0.03 0 -0.03 0.009 -0.029 0.01 -0.04 0 -0.029 0 -0.04 0 -0.029 0 -0.03 0 -0.029 -0.01 -0.03 -0.009 -0.039 0 -0.03 -0.01 -0.029 -0.01 -0.04 -0.02 -0.029 -0.01 -0.03 -0.019 0 0 0 0 0 -0.001zm0.02 -0.739l0.306 0.178 -0.326 0.561 -0.295 -0.167 0 0 0.315 -0.572zm-0.571 -0.344l0.561 0.325 0 0 0 0 0 0 0 0 0 0 0 0 0 0 0 0 0 0 0 0 0 0 0 0 0 0 0 0.01 0 0 0 0 0 0 0 0 0 0.009 0 -0.009 0 0.009 0 0 0 0 0 0 0 0 0 0 0 0 0 0 0.01 0 0 0 0 0 0 0 0 0 -0.315 0.572 -0.039 -0.02 -0.02 -0.02 -0.03 -0.019 -0.029 -0.02 -0.02 -0.03 -0.02 -0.019 -0.029 -0.02 -0.02 -0.03 -0.02 -0.029 -0.02 -0.02 -0.019 -0.03 -0.01 -0.029 -0.01 -0.03 -0.02 -0.029 -0.01 -0.03 -0.009 -0.029 0 -0.04 -0.01 -0.029 -0.01 -0.03 0 -0.03 0 -0.039 0 -0.03 0 -0.029 0 -0.03 0.01 -0.039 0.01 -0.03 0 -0.029 0.009 -0.04 0.01 -0.029 0.02 -0.03 0.01 -0.029 0.02 -0.03 0 0 0 0 0 0.001zm2.965 -3.912l-2.404 4.237 -0.561 -0.325 2.394 -4.227 0.443 -0.118 0.128 0.433 0 0 0 0zm-0.571 -0.315l0.158 -0.286 0.285 0.168 -0.443 0.118zm5.212 -1.202l-0.562 -0.315 0 0 0.059 -0.119 0.05 -0.108 0.049 -0.118 0.039 -0.109 0.04 -0.118 0.029 -0.118 0.02 -0.118 0.02 -0.119 0.01 -0.118 0 -0.118 0 -0.118 -0.01 -0.118 -0.01 -0.119 -0.01 -0.118 -0.03 -0.108 -0.029 -0.118 -0.03 -0.109 -0.039 -0.118 -0.049 -0.108 -0.05 -0.099 -0.049 -0.108 -0.069 -0.099 -0.059 -0.098 -0.069 -0.099 -0.069 -0.099 -0.089 -0.088 -0.078 -0.079 -0.089 -0.079 -0.099 -0.089 -0.098 -0.069 -0.099 -0.068 -0.108 -0.069 0.315 -0.562 0.138 0.079 0.128 0.088 0.128 0.099 0.119 0.099 0.108 0.098 0.108 0.109 0.099 0.118 0.098 0.118 0.089 0.118 0.089 0.128 0.069 0.128 0.069 0.128 0.069 0.138 0.049 0.138 0.059 0.138 0.039 0.148 0.04 0.138 0.02 0.148 0.029 0.147 0.01 0.148 0.01 0.148 0 0.148 -0.01 0.157 -0.01 0.148 -0.02 0.148 -0.029 0.148 -0.04 0.148 -0.039 0.147 -0.049 0.148 -0.059 0.148 -0.069 0.138 -0.079 0.138 0 0 0 0 0 0zm-3.961 1.3l0.276 -0.591 -0.01 0 0.109 0.04 0.108 0.039 0.108 0.039 0.109 0.03 0.118 0.02 0.108 0.019 0.109 0.01 0.118 0.01 0.108 0.01 0.109 -0.01 0.108 -0.01 0.118 -0.01 0.109 -0.01 0.108 -0.029 0.109 -0.03 0.098 -0.029 0.109 -0.03 0.098 -0.039 0.109 -0.049 0.098 -0.05 0.099 -0.059 0.088 -0.059 0.099 -0.059 0.089 -0.069 0.078 -0.079 0.089 -0.069 0.079 -0.088 0.079 -0.079 0.069 -0.099 0.069 -0.089 0.069 -0.098 0.059 -0.099 0.561 0.316 -0.069 0.128 -0.088 0.128 -0.089 0.118 -0.089 0.108 -0.098 0.109 -0.099 0.108 -0.108 0.099 -0.109 0.088 -0.108 0.089 -0.118 0.079 -0.128 0.079 -0.119 0.069 -0.128 0.059 -0.118 0.059 -0.138 0.059 -0.128 0.039 -0.138 0.04 -0.128 0.039 -0.138 0.02 -0.148 0.03 -0.137 0.009 -0.138 0.01 -0.138 0 -0.148 0 -0.138 -0.01 -0.138 -0.019 -0.138 -0.02 -0.148 -0.03 -0.138 -0.039 -0.138 -0.039 -0.137 -0.05 -0.138 -0.059 0 0 0 0 -0.001 0zm0 0l0 0 0 0 0 0zm0.276 -0.591l0 0 -0.276 0.591 -0.01 0 0.276 -0.591 0.01 0zm-0.01 0l0.01 0 0 0 -0.01 0zm0 0l0 0 -0.266 0.591 -0.01 0 0.266 -0.601 0.01 0.01 0 0zm-0.01 -0.01l0.01 0.01 -0.01 -0.01 0 0zm0 0l0 0 -0.256 0.601 0 0 -0.01 -0.01 0.266 -0.591 0 0zm-0.256 0.601l-0.01 -0.01 0 0.01 0.01 0zm0.256 -0.601l0 0 -0.266 0.591 0 0 -0.009 0 0.275 -0.591zm-0.266 0.591l-0.01 0 0 0 0.01 0zm0.266 -0.591l0 0 -0.275 0.591 0 0 0.275 -0.591 0 0zm0 0l0 0 0 0 0 0zm-0.009 0l0.009 0 -0.275 0.591 0 0 -0.01 -0.009 0.276 -0.582zm-0.266 0.591l-0.01 -0.009 0 0 0.01 0.009zm0.275 -0.591l0 0 -0.285 0.582 0 0 0.266 -0.592 0.019 0.01 0 0zm-0.019 -0.009l0.01 0 0.009 0.009 -0.019 -0.009zm-0.01 0l0.01 0 -0.247 0.601 -0.01 0 -0.029 -0.02 0.276 -0.581 0 0 0 0zm-0.246 0.6l-0.01 -0.009 -0.02 0 0.03 0.009 0 0zm0.275 -0.591l0 0 -0.305 0.582 0 0 0.286 -0.592 0.019 0.01zm-0.019 -0.009l0.01 0.009 0.009 0 -0.019 -0.009zm-0.02 -0.01l0.02 0.01 -0.266 0.591 -0.03 -0.01 0 0 0.276 -0.591 0 0zm-0.276 0.591l0 0 0 0 0 0zm0.266 -0.591l0.01 0 -0.276 0.591 -0.01 0 0 0 0.276 -0.591zm0 0l0 0 -0.276 0.591 0 -0.01 0 0 0.276 -0.581zm-0.276 0.581l0 0 0 0 0 0zm0.276 -0.581l0.01 0 -0.286 0.581 -0.01 0 0.286 -0.581 0 0zm0 0l0 0 0 0 0 0zm0 -0.01l0 0.01 -0.276 0.581 -0.01 0 -0.01 -0.01 0.296 -0.581zm-0.286 0.591l-0.01 0 0 -0.01 0.01 0.01zm0.286 -0.581l0 0 -0.296 0.571 0 0 0.286 -0.581 0.01 0.01zm-0.01 -0.01l0.01 0.01 0 0 -0.01 -0.01zm0 0l0 0 -0.276 0.591 -0.009 -0.01 0.275 -0.581 0.01 0zm-0.01 0l0.01 0 0 0 -0.01 0zm0 0l0 0 -0.266 0.591 0 0 -0.009 -0.01 0.275 -0.581zm-0.266 0.591l-0.01 -0.01 0 0 0.01 0.01zm0.266 -0.591l0.01 0 -0.285 0.581 -0.01 0 0.285 -0.581 0 0zm0 0l0 0 0 0 0 0zm0 0l0 0 -0.275 0.581 -0.01 0 -0.01 0 0.295 -0.581zm-0.285 0.581l0 0 -0.01 0 0.01 0zm0.285 -0.581l0 0 -0.295 0.581 0 -0.01 0.286 -0.581 0.009 0.01zm-0.009 -0.01l0 0.01 0.009 0 -0.009 -0.01zm-0.01 0l0.01 0 -0.276 0.591 -0.01 0 0 -0.01 0.276 -0.581zm-0.276 0.591l0 -0.01 0 0 0 0.01zm0.276 -0.591l0.01 0 -0.286 0.581 -0.02 -0.01 -0.01 0 0.306 -0.571zm-0.296 0.571l-0.01 0 0 0 0.01 0zm0.306 -0.571l0 0.01 -0.316 0.561 -0.01 0 0.296 -0.581 0.03 0.01zm-0.03 -0.01l0.02 0.01 0.01 0 -0.03 -0.01 0 0zm0 0l0 0 -0.266 0.591 0 0 -0.02 -0.01 0.286 -0.581zm-0.266 0.591l-0.02 -0.01 0 0 0.02 0.01zm0.276 -0.591l0 0 -0.296 0.581 0 0 0.286 -0.581 0.01 0zm-0.01 0l0.01 0 0 0 -0.01 0zm0 0l0 0 -0.286 0.581 0 0 -0.019 -0.009 0.305 -0.572zm-0.286 0.581l-0.01 0 -0.009 -0.009 0.019 0.009zm0.296 -0.581l0 0 -0.315 0.572 0 0 0.305 -0.572 0.01 0 0 0zm-0.01 0l0 0 0.01 0 -0.01 0zm-0.02 -0.01l0.02 0.01 -0.296 0.572 -0.019 -0.01 0 0 0.295 -0.572zm-0.295 0.572l0 0 -0.01 0 0.01 0zm0.295 -0.572l0 0 -0.295 0.572 -0.01 0 0 0 0.305 -0.572zm-0.305 0.572l0 0 0.01 0 -0.01 0zm0.305 -0.572l0 0 -0.305 0.572 0 0 0.295 -0.582 0.01 0.01zm-0.01 -0.01l0.01 0 0 0.01 -0.01 -0.01zm0 0l0 0 -0.285 0.582 -0.01 0 0 0 0.295 -0.582zm-0.295 0.582l0 0 0 0 0 0zm0.295 -0.582l0 0 -0.295 0.582 0 0 -0.02 -0.01 0.315 -0.572 0 0zm-0.295 0.582l-0.01 -0.01 -0.01 0 0.02 0.01zm0.305 -0.572l0 0 -0.325 0.562 0 0 0.325 -0.572 0 0.01zm0 -0.01l0 0.01 0 0 0 -0.01zm-0.01 0l0.01 0 -0.325 0.572 0 0 0.315 -0.572 0 0zm0 0l0 0 0.01 0 -0.01 0zm0 0l0 0 -0.315 0.572 0 0 0 0 0.315 -0.572zm-0.315 0.572l0 0 -0.029 -0.02 0.029 0.02zm0.266 -0.601l0.049 0.029 -0.315 0.572 -0.049 -0.03 -0.01 0 0.325 -0.571 0 0zm-0.315 0.571l0 0 -0.01 0 0.01 0zm0.315 -0.571l0 0 -0.325 0.571 0 0 0.315 -0.571 0.01 0zm-0.01 0l0 0 0.01 0 -0.01 0zm-0.01 0l0.01 0 -0.305 0.571 0 0 -0.01 0 0.305 -0.571zm-0.295 0.571l-0.01 0 0 0 0.01 0zm0.305 -0.571l0.01 0 -0.325 0.571 0 -0.01 0 0 0.315 -0.561zm0 0l0 0 -0.315 0.561 -0.01 0 0 0 0.325 -0.561zm-0.325 0.561l0 0 0 0 0 0zm0.276 -0.591l0.049 0.03 -0.325 0.561 -0.049 -0.029 0 0 0.325 -0.562zm-0.325 0.562l0 0 -0.02 -0.01 0.02 0.01zm0.325 -0.562l0 0 -0.325 0.562 -0.01 0 0.325 -0.572 0.01 0.01zm-0.01 -0.01l0.01 0.01 0 0 -0.01 -0.01zm0 0l0 0 -0.315 0.572 0 0 -0.01 0 0.325 -0.572zm-0.315 0.572l-0.01 0 0 0 0.01 0zm0.315 -0.572l0.01 0 -0.335 0.572 0 0 -0.01 -0.01 0.335 -0.562zm-0.325 0.572l0 -0.01 -0.01 0 0.01 0.01zm0.335 -0.562l0.01 0 -0.355 0.552 0 -0.01 0.335 -0.552 0.01 0.01zm-0.01 -0.01l0.01 0 0 0.01 -0.01 -0.01zm0 0l0 0 -0.335 0.562 0 0 0.325 -0.562 0.01 0 0 0zm-0.01 0l0.01 0 0 0 -0.01 0zm0 0l0 0 -0.315 0.562 -0.01 0 -0.01 -0.01 0.335 -0.552 0 0zm-0.325 0.562l0 -0.01 -0.01 0 0.01 0.01zm0.335 -0.562l0.01 0.01 -0.355 0.542 -0.009 0 0.354 -0.552 0 0zm0 0l0 0 0 0 0 0zm-0.019 -0.009l0.019 0.009 -0.345 0.552 -0.019 -0.01 0 0 0.345 -0.551 0 0zm-0.345 0.551l0 0 0 0 0 0zm0.345 -0.551l0.009 0 -0.354 0.551 -0.01 -0.01 0.345 -0.551 0.01 0.01 0 0zm-0.01 -0.01l0 0 0.01 0.01 -0.01 -0.01zm-0.01 0l0.01 0 -0.325 0.571 0 -0.01 -0.02 -0.01 0.335 -0.551 0 0zm-0.315 0.561l-0.01 0 -0.01 -0.01 0.02 0.01zm0.325 -0.551l0.01 0 -0.355 0.541 0 0 0 0 0.345 -0.541zm0 -0.01l0 0.01 -0.345 0.541 -0.01 0 0.355 -0.551 0 0zm0 0l0 0 0 0 0 0zm-0.01 0l0.01 0 -0.345 0.551 0 0 -0.01 0 0.345 -0.551 0 0zm-0.335 0.551l-0.01 0 0.02 0.01 -0.01 -0.01zm0.325 -0.561l0.01 0.01 -0.345 0.551 -0.01 -0.009 -0.02 -0.01 0.365 -0.542zm-0.345 0.552l-0.01 -0.01 -0.01 0 0.02 0.01zm0.355 -0.542l0 0 -0.375 0.532 0 0 0.365 -0.542 0.01 0.01 0 0zm-0.01 -0.01l0 0 0.01 0.01 -0.01 -0.01zm-0.01 -0.01l0.01 0.01 -0.345 0.552 -0.01 -0.01 -0.01 0 0.355 -0.552zm-0.345 0.552l0 0 -0.01 0 0.01 0zm0.345 -0.552l0 0.01 -0.355 0.542 0 0 0 0 0.355 -0.552zm0 0l0 0 -0.355 0.552 0 0 -0.009 -0.01 0.364 -0.542 0 0zm-0.355 0.552l-0.009 -0.01 0 0 0.009 0.01zm0.355 -0.542l0.01 0 -0.374 0.532 -0.01 0 0.374 -0.542 0 0.01zm0 -0.01l0 0.01 0 0 0 -0.01zm0 0l0 0 -0.364 0.542 -0.01 0 0.344 -0.552 0.03 0.01 0 0zm-0.03 -0.01l0.02 0.01 0.01 0 -0.03 -0.01zm0 0l0 0 -0.315 0.562 -0.01 0 -0.019 -0.02 0.344 -0.542 0 0 0 0zm-0.325 0.562l-0.009 -0.01 -0.01 -0.01 0.019 0.02zm0.345 -0.552l0 0 -0.364 0.532 -0.01 0 0.364 -0.542 0.01 0.01 0 0zm-0.01 -0.01l0.01 0.01 0 0 -0.01 -0.01zm0 0l0 0 -0.354 0.552 0 -0.01 -0.01 0 0.364 -0.542zm-0.354 0.542l-0.01 0 0 0 0.01 0zm0.364 -0.532l0 0 -0.374 0.532 0 0 0.354 -0.552 0.02 0.02 0 0zm-0.02 -0.02l0 0.01 0.02 0.01 -0.02 -0.02zm-0.009 0l0.01 0 -0.335 0.562 -0.01 0 -0.01 -0.01 0.345 -0.552 0 0 0 0zm-0.335 0.562l-0.01 -0.01 0 0 0.01 0.01zm0.325 -0.562l0.029 0.01 -0.364 0.542 -0.03 -0.02 0 0 0.365 -0.532zm-0.365 0.532l0.01 0 -0.01 0 0 0zm0.365 -0.532l0.01 0 -0.375 0.532 -0.01 0 0.375 -0.542 0 0.01zm0 -0.01l0 0.01 0 0 0 -0.01zm0 0l0 0 -0.365 0.542 -0.01 0 0 0 0.375 -0.542zm-0.01 0l0.01 0 -0.375 0.542 0 -0.01 0 0 0.365 -0.532zm-0.365 0.532l0 0 0 0 0 0zm0.365 -0.532l0.01 0 -0.375 0.532 0 0 0.365 -0.532 0 0zm0 0l0 0 0 0 0 0zm0 -0.009l0 0.009 -0.365 0.532 0 0 -0.009 0 0.374 -0.541zm-0.365 0.541l-0.009 0 0 0 0.009 0zm0.365 -0.541l0 0 -0.374 0.541 0 -0.009 0.364 -0.532 0.01 0zm-0.01 0l0.01 0 0 0 -0.01 0zm0 0l0 0 -0.364 0.541 0 -0.009 -0.01 0 0.374 -0.532zm-0.364 0.532l-0.01 0 0 0 0.01 0zm0.364 -0.532l0 0 -0.374 0.532 0 0 0.374 -0.532 0 0zm0 0l0 0 0 0 0 0zm-0.01 0l0.01 0 -0.374 0.532 0 0 0 0 0.364 -0.532zm-0.364 0.532l0 0 0 0 0 0zm-0.917 -4.069l0.562 0.325 0 0 -0.059 0.098 -0.049 0.109 -0.04 0.108 -0.039 0.108 -0.04 0.109 -0.029 0.108 -0.02 0.109 -0.02 0.118 -0.009 0.108 -0.01 0.109 0 0.118 0 0.108 0.01 0.118 0.009 0.099 0.02 0.118 0.02 0.109 0.029 0.098 0.03 0.109 0.039 0.108 0.04 0.099 0.049 0.108 0.049 0.098 0.05 0.089 0.059 0.099 0.069 0.088 0.069 0.089 0.069 0.089 0.078 0.079 0.089 0.078 0.079 0.079 0.089 0.079 0.098 0.069 -0.374 0.532 -0.118 -0.089 -0.119 -0.098 -0.108 -0.089 -0.099 -0.108 -0.098 -0.099 -0.089 -0.108 -0.089 -0.118 -0.088 -0.109 -0.069 -0.118 -0.069 -0.128 -0.069 -0.128 -0.059 -0.128 -0.049 -0.128 -0.05 -0.128 -0.039 -0.138 -0.03 -0.138 -0.029 -0.138 -0.03 -0.138 -0.01 -0.138 -0.01 -0.138 0 -0.138 0 -0.148 0.01 -0.138 0.02 -0.138 0.02 -0.147 0.029 -0.138 0.04 -0.138 0.039 -0.138 0.049 -0.138 0.059 -0.138 0.06 -0.128 0.078 -0.138 0 0 0 0 0 0zm4.217 -1.163l-0.315 0.561 0 0 -0.118 -0.059 -0.109 -0.049 -0.118 -0.049 -0.118 -0.039 -0.108 -0.04 -0.119 -0.02 -0.118 -0.029 -0.118 -0.01 -0.118 -0.02 -0.118 0 -0.119 0 -0.118 0.01 -0.118 0.01 -0.118 0.02 -0.109 0.019 -0.118 0.03 -0.108 0.03 -0.119 0.049 -0.108 0.039 -0.108 0.049 -0.099 0.05 -0.108 0.059 -0.089 0.069 -0.099 0.069 -0.098 0.079 -0.089 0.078 -0.079 0.089 -0.088 0.089 -0.079 0.088 -0.069 0.099 -0.069 0.108 -0.069 0.109 -0.562 -0.325 0.079 -0.138 0.089 -0.128 0.099 -0.128 0.098 -0.119 0.099 -0.108 0.108 -0.108 0.118 -0.109 0.118 -0.089 0.119 -0.088 0.128 -0.089 0.128 -0.069 0.128 -0.069 0.138 -0.059 0.138 -0.059 0.138 -0.049 0.138 -0.05 0.147 -0.029 0.148 -0.03 0.148 -0.029 0.148 -0.01 0.147 -0.01 0.148 0 0.148 0.01 0.158 0.01 0.147 0.019 0.148 0.03 0.148 0.039 0.148 0.04 0.148 0.059 0.138 0.059 0.147 0.059 0.138 0.079 0 0 0 0z"/>
   </g>
   <rect class="fil1" y="0.015" width="14.761" height="11.193"/>
  </g>
 </g>
</svg>
