<?xml version="1.0" encoding="UTF-8"?>
<!DOCTYPE svg PUBLIC "-//W3C//DTD SVG 1.1//EN" "http://www.w3.org/Graphics/SVG/1.1/DTD/svg11.dtd">
<!-- Creator: CorelDRAW 2020 (64 Bit) -->
<svg xmlns="http://www.w3.org/2000/svg" xml:space="preserve" width="42px" height="47px" version="1.1" style="shape-rendering:geometricPrecision; text-rendering:geometricPrecision; image-rendering:optimizeQuality; fill-rule:evenodd; clip-rule:evenodd"
viewBox="0 0 4.211 4.673"
 xmlns:xlink="http://www.w3.org/1999/xlink"
 xmlns:xodm="http://www.corel.com/coreldraw/odm/2003">
 <defs>
  <style type="text/css">
   <![CDATA[
    .fil5 {fill:#00D2FF}
    .fil4 {fill:#00F075}
    .fil0 {fill:#CFA81D}
    .fil1 {fill:#D12332}
    .fil3 {fill:#F93647}
    .fil2 {fill:#FECE00}
   ]]>
  </style>
 </defs>
 <g id="Camada_x0020_1">
  <metadata id="CorelCorpID_0Corel-Layer"/>
  <g id="Play_x0020_Strory_x0020_icon">
   <g>
    <path class="fil0" d="M4.02 2.612l-0.885 0.505 -0.778 -0.762 0.761 -0.767 0.902 0.518c0.24,0.137 0.268,0.355 0,0.506z"/>
    <path class="fil1" d="M3.135 3.117l-0.902 0.514 -1.736 0.99c-0.158,0.084 -0.321,0.059 -0.396,-0.016l2.256 -2.25 0.778 0.762z"/>
   </g>
   <g>
    <path class="fil2" d="M4.02 2.59l-0.885 0.504 -0.778 -0.762 0.761 -0.767 0.902 0.519c0.24,0.136 0.268,0.355 0,0.506z"/>
    <path class="fil3" d="M3.135 3.094l-0.902 0.514 -1.736 0.99c-0.158,0.084 -0.303,0.083 -0.396,0.007l2.256 -2.273 0.778 0.762z"/>
    <path class="fil4" d="M0.071 0.092c0.083,-0.102 0.232,-0.124 0.376,-0.042l1.787 1.007 0.884 0.508 -0.761 0.767 -2.286 -2.24z"/>
    <path class="fil5" d="M0.101 4.605c-0.062,-0.052 -0.101,-0.139 -0.101,-0.259l0.002 -2.015 0.002 -2.021c-0.001,-0.092 0.024,-0.165 0.067,-0.218l2.286 2.24 -2.256 2.273z"/>
   </g>
  </g>
 </g>
</svg>
