<?xml version="1.0" encoding="UTF-8"?>
<!DOCTYPE svg PUBLIC "-//W3C//DTD SVG 1.1//EN" "http://www.w3.org/Graphics/SVG/1.1/DTD/svg11.dtd">
<!-- Creator: CorelDRAW 2020 (64 Bit) -->
<svg xmlns="http://www.w3.org/2000/svg" xml:space="preserve" width="153px" height="153px" version="1.1" style="shape-rendering:geometricPrecision; text-rendering:geometricPrecision; image-rendering:optimizeQuality; fill-rule:evenodd; clip-rule:evenodd"
viewBox="0 0 11.643 11.643"
 xmlns:xlink="http://www.w3.org/1999/xlink"
 xmlns:xodm="http://www.corel.com/coreldraw/odm/2003">
 <defs>
  <style type="text/css">
   <![CDATA[
    .fil0 {fill:red}
   ]]>
  </style>
 </defs>
 <g id="Camada_x0020_1">
  <metadata id="CorelCorpID_0Corel-Layer"/>
  <path class="fil0" d="M5.822 0c3.215,0 5.821,2.606 5.821,5.822 0,3.215 -2.606,5.821 -5.821,5.821 -3.216,0 -5.822,-2.606 -5.822,-5.821 0,-3.216 2.606,-5.822 5.822,-5.822zm-3.653 4.177l0.59 -1.54 0.224 0 0.627 1.54 -0.232 0 -0.178 -0.467 -0.648 0 -0.167 0.467 -0.216 0zm0.443 -0.632l0.524 0 -0.161 -0.427c-0.048,-0.13 -0.084,-0.237 -0.11,-0.321 -0.021,0.1 -0.049,0.198 -0.085,0.296l-0.168 0.452zm1.136 1.059l0 -1.543 0.172 0 0 0.146c0.04,-0.056 0.086,-0.099 0.137,-0.127 0.051,-0.028 0.113,-0.043 0.186,-0.043 0.095,0 0.179,0.025 0.252,0.074 0.072,0.048 0.127,0.118 0.164,0.206 0.037,0.09 0.056,0.187 0.056,0.294 0,0.113 -0.02,0.216 -0.061,0.307 -0.041,0.091 -0.101,0.161 -0.179,0.21 -0.077,0.048 -0.159,0.072 -0.246,0.072 -0.063,0 -0.119,-0.013 -0.169,-0.039 -0.05,-0.027 -0.091,-0.06 -0.123,-0.101l0 0.544 -0.189 0zm0.172 -0.978c0,0.143 0.029,0.248 0.086,0.317 0.058,0.068 0.129,0.103 0.211,0.103 0.084,0 0.155,-0.036 0.215,-0.107 0.06,-0.071 0.09,-0.181 0.09,-0.329 0,-0.142 -0.029,-0.248 -0.088,-0.319 -0.058,-0.07 -0.128,-0.105 -0.209,-0.105 -0.08,0 -0.151,0.037 -0.213,0.112 -0.062,0.075 -0.092,0.184 -0.092,0.328zm1.784 0.189l0.196 0.026c-0.031,0.114 -0.088,0.202 -0.171,0.265 -0.083,0.063 -0.189,0.094 -0.318,0.094 -0.163,0 -0.292,-0.05 -0.387,-0.15 -0.096,-0.1 -0.143,-0.241 -0.143,-0.422 0,-0.187 0.048,-0.332 0.144,-0.436 0.097,-0.103 0.222,-0.155 0.375,-0.155 0.149,0 0.271,0.051 0.365,0.152 0.094,0.102 0.141,0.244 0.141,0.428 0,0.011 0,0.028 -0.001,0.05l-0.831 0c0.008,0.122 0.042,0.216 0.104,0.281 0.062,0.065 0.14,0.098 0.233,0.098 0.069,0 0.128,-0.019 0.177,-0.055 0.049,-0.037 0.088,-0.095 0.116,-0.176zm-0.619 -0.303l0.621 0c-0.008,-0.093 -0.032,-0.164 -0.071,-0.211 -0.06,-0.072 -0.138,-0.109 -0.234,-0.109 -0.086,0 -0.159,0.029 -0.218,0.087 -0.059,0.058 -0.091,0.136 -0.098,0.233zm1.054 0.665l0 -1.116 0.17 0 0 0.158c0.081,-0.121 0.2,-0.182 0.354,-0.182 0.067,0 0.129,0.012 0.185,0.036 0.056,0.025 0.099,0.056 0.127,0.095 0.028,0.039 0.047,0.086 0.058,0.14 0.007,0.035 0.011,0.096 0.011,0.184l0 0.685 -0.189 0 0 -0.678c0,-0.077 -0.008,-0.135 -0.022,-0.173 -0.015,-0.038 -0.041,-0.068 -0.078,-0.091 -0.038,-0.023 -0.082,-0.034 -0.132,-0.034 -0.08,0 -0.149,0.025 -0.208,0.076 -0.058,0.051 -0.087,0.148 -0.087,0.291l0 0.609 -0.189 0zm1.924 -0.14c-0.07,0.06 -0.138,0.102 -0.203,0.126 -0.065,0.025 -0.134,0.037 -0.209,0.037 -0.122,0 -0.216,-0.029 -0.282,-0.089 -0.066,-0.06 -0.099,-0.136 -0.099,-0.229 0,-0.054 0.012,-0.104 0.037,-0.149 0.025,-0.045 0.058,-0.081 0.098,-0.109 0.04,-0.027 0.086,-0.047 0.136,-0.061 0.037,-0.01 0.094,-0.019 0.168,-0.029 0.153,-0.018 0.266,-0.04 0.338,-0.065 0.001,-0.025 0.001,-0.042 0.001,-0.049 0,-0.076 -0.018,-0.13 -0.054,-0.162 -0.048,-0.043 -0.12,-0.064 -0.215,-0.064 -0.09,0 -0.156,0.016 -0.198,0.047 -0.042,0.031 -0.074,0.087 -0.094,0.166l-0.185 -0.026c0.017,-0.079 0.045,-0.143 0.083,-0.192 0.039,-0.049 0.095,-0.086 0.168,-0.112 0.073,-0.026 0.158,-0.04 0.254,-0.04 0.095,0 0.173,0.011 0.232,0.034 0.06,0.023 0.104,0.051 0.132,0.085 0.028,0.034 0.048,0.077 0.059,0.128 0.006,0.033 0.009,0.091 0.009,0.174l0 0.251c0,0.175 0.004,0.286 0.012,0.333 0.008,0.047 0.023,0.092 0.046,0.135l-0.197 0c-0.019,-0.04 -0.032,-0.087 -0.037,-0.14zm-0.015 -0.419c-0.069,0.028 -0.172,0.051 -0.309,0.071 -0.079,0.011 -0.134,0.023 -0.166,0.037 -0.032,0.014 -0.057,0.035 -0.075,0.061 -0.017,0.027 -0.026,0.057 -0.026,0.09 0,0.05 0.019,0.091 0.057,0.125 0.039,0.033 0.094,0.05 0.168,0.05 0.073,0 0.138,-0.016 0.194,-0.048 0.057,-0.031 0.099,-0.075 0.126,-0.129 0.02,-0.043 0.03,-0.106 0.03,-0.188l0.001 -0.069zm0.407 0.225l0.187 -0.03c0.01,0.075 0.039,0.133 0.087,0.173 0.049,0.039 0.116,0.06 0.202,0.06 0.087,0 0.151,-0.018 0.194,-0.054 0.042,-0.035 0.063,-0.076 0.063,-0.124 0,-0.042 -0.019,-0.076 -0.057,-0.101 -0.026,-0.016 -0.091,-0.037 -0.193,-0.064 -0.139,-0.034 -0.234,-0.064 -0.288,-0.09 -0.053,-0.026 -0.094,-0.061 -0.121,-0.106 -0.028,-0.045 -0.042,-0.095 -0.042,-0.149 0,-0.05 0.011,-0.096 0.034,-0.138 0.023,-0.042 0.054,-0.077 0.093,-0.105 0.029,-0.022 0.069,-0.04 0.12,-0.055 0.051,-0.015 0.105,-0.023 0.163,-0.023 0.087,0 0.164,0.013 0.23,0.038 0.066,0.025 0.115,0.06 0.146,0.103 0.031,0.043 0.053,0.101 0.065,0.173l-0.185 0.026c-0.008,-0.058 -0.032,-0.104 -0.072,-0.136 -0.041,-0.033 -0.097,-0.049 -0.171,-0.049 -0.086,0 -0.148,0.014 -0.185,0.043 -0.037,0.029 -0.055,0.062 -0.055,0.101 0,0.024 0.007,0.046 0.023,0.066 0.015,0.02 0.039,0.037 0.072,0.05 0.019,0.007 0.074,0.023 0.167,0.049 0.133,0.035 0.226,0.064 0.279,0.087 0.053,0.023 0.095,0.056 0.125,0.099 0.03,0.043 0.045,0.097 0.045,0.161 0,0.063 -0.018,0.122 -0.055,0.178 -0.037,0.055 -0.09,0.098 -0.159,0.129 -0.07,0.03 -0.148,0.045 -0.235,0.045 -0.145,0 -0.256,-0.03 -0.332,-0.09 -0.076,-0.06 -0.124,-0.149 -0.145,-0.267zm-4.857 2.735l0 -1.539 1.111 0 0 0.181 -0.907 0 0 0.473 0.849 0 0 0.18 -0.849 0 0 0.525 0.944 0 0 0.18 -1.148 0zm1.33 -0.333l0.187 -0.03c0.011,0.075 0.04,0.132 0.088,0.172 0.048,0.04 0.115,0.06 0.201,0.06 0.088,0 0.152,-0.017 0.194,-0.053 0.042,-0.035 0.063,-0.077 0.063,-0.124 0,-0.043 -0.019,-0.077 -0.056,-0.101 -0.027,-0.017 -0.091,-0.038 -0.194,-0.064 -0.138,-0.035 -0.234,-0.065 -0.287,-0.09 -0.054,-0.026 -0.094,-0.061 -0.122,-0.106 -0.027,-0.045 -0.041,-0.095 -0.041,-0.149 0,-0.05 0.011,-0.096 0.034,-0.138 0.023,-0.043 0.053,-0.078 0.092,-0.106 0.03,-0.021 0.07,-0.04 0.12,-0.055 0.051,-0.015 0.105,-0.022 0.163,-0.022 0.088,0 0.165,0.012 0.23,0.038 0.067,0.025 0.115,0.059 0.147,0.102 0.031,0.044 0.053,0.101 0.065,0.174l-0.185 0.025c-0.008,-0.058 -0.033,-0.103 -0.073,-0.136 -0.04,-0.032 -0.096,-0.048 -0.17,-0.048 -0.086,0 -0.148,0.014 -0.185,0.043 -0.037,0.028 -0.056,0.062 -0.056,0.1 0,0.025 0.008,0.047 0.023,0.067 0.016,0.02 0.04,0.037 0.073,0.05 0.019,0.007 0.074,0.023 0.166,0.048 0.133,0.036 0.227,0.065 0.28,0.088 0.053,0.022 0.094,0.055 0.124,0.098 0.031,0.044 0.046,0.097 0.046,0.162 0,0.063 -0.018,0.122 -0.055,0.177 -0.037,0.056 -0.09,0.099 -0.159,0.129 -0.07,0.031 -0.148,0.046 -0.236,0.046 -0.145,0 -0.255,-0.03 -0.331,-0.09 -0.076,-0.06 -0.125,-0.149 -0.146,-0.267zm1.075 0l0.187 -0.03c0.011,0.075 0.04,0.132 0.088,0.172 0.048,0.04 0.115,0.06 0.201,0.06 0.087,0 0.152,-0.017 0.194,-0.053 0.042,-0.035 0.063,-0.077 0.063,-0.124 0,-0.043 -0.019,-0.077 -0.056,-0.101 -0.027,-0.017 -0.091,-0.038 -0.194,-0.064 -0.138,-0.035 -0.234,-0.065 -0.288,-0.09 -0.053,-0.026 -0.093,-0.061 -0.121,-0.106 -0.028,-0.045 -0.042,-0.095 -0.042,-0.149 0,-0.05 0.012,-0.096 0.034,-0.138 0.023,-0.043 0.054,-0.078 0.093,-0.106 0.03,-0.021 0.07,-0.04 0.12,-0.055 0.051,-0.015 0.105,-0.022 0.163,-0.022 0.088,0 0.164,0.012 0.23,0.038 0.067,0.025 0.115,0.059 0.147,0.102 0.031,0.044 0.053,0.101 0.065,0.174l-0.185 0.025c-0.008,-0.058 -0.033,-0.103 -0.073,-0.136 -0.04,-0.032 -0.097,-0.048 -0.17,-0.048 -0.086,0 -0.148,0.014 -0.185,0.043 -0.037,0.028 -0.056,0.062 -0.056,0.1 0,0.025 0.008,0.047 0.023,0.067 0.016,0.02 0.04,0.037 0.072,0.05 0.019,0.007 0.075,0.023 0.167,0.048 0.133,0.036 0.226,0.065 0.28,0.088 0.053,0.022 0.094,0.055 0.124,0.098 0.031,0.044 0.046,0.097 0.046,0.162 0,0.063 -0.019,0.122 -0.055,0.177 -0.037,0.056 -0.09,0.099 -0.16,0.129 -0.069,0.031 -0.148,0.046 -0.235,0.046 -0.145,0 -0.255,-0.03 -0.331,-0.09 -0.076,-0.06 -0.125,-0.149 -0.146,-0.267zm1.879 0.193c-0.07,0.06 -0.138,0.102 -0.203,0.127 -0.065,0.025 -0.134,0.037 -0.209,0.037 -0.122,0 -0.216,-0.03 -0.282,-0.09 -0.066,-0.059 -0.099,-0.136 -0.099,-0.228 0,-0.055 0.012,-0.105 0.037,-0.15 0.025,-0.045 0.058,-0.081 0.098,-0.108 0.04,-0.027 0.086,-0.048 0.136,-0.062 0.037,-0.01 0.094,-0.019 0.168,-0.028 0.153,-0.018 0.266,-0.04 0.338,-0.065 0.001,-0.026 0.001,-0.042 0.001,-0.049 0,-0.077 -0.018,-0.131 -0.054,-0.162 -0.048,-0.043 -0.12,-0.064 -0.215,-0.064 -0.09,0 -0.156,0.016 -0.198,0.047 -0.042,0.031 -0.074,0.086 -0.094,0.166l-0.185 -0.026c0.017,-0.079 0.044,-0.144 0.083,-0.192 0.039,-0.049 0.095,-0.086 0.168,-0.113 0.073,-0.026 0.157,-0.039 0.254,-0.039 0.095,0 0.173,0.011 0.232,0.034 0.06,0.022 0.104,0.05 0.132,0.084 0.028,0.034 0.048,0.077 0.059,0.129 0.006,0.032 0.009,0.09 0.009,0.174l0 0.251c0,0.175 0.004,0.286 0.012,0.332 0.008,0.047 0.023,0.092 0.046,0.135l-0.197 0c-0.019,-0.04 -0.032,-0.086 -0.037,-0.14zm-0.015 -0.419c-0.069,0.028 -0.172,0.052 -0.31,0.071 -0.078,0.011 -0.133,0.024 -0.165,0.038 -0.032,0.014 -0.057,0.034 -0.075,0.061 -0.017,0.027 -0.026,0.056 -0.026,0.089 0,0.05 0.019,0.092 0.057,0.125 0.039,0.034 0.094,0.051 0.168,0.051 0.073,0 0.137,-0.016 0.194,-0.048 0.057,-0.032 0.099,-0.075 0.125,-0.13 0.021,-0.042 0.031,-0.105 0.031,-0.188l0.001 -0.069zm-5.954 2.466l0.191 -0.017c0.009,0.078 0.03,0.141 0.064,0.191 0.033,0.049 0.085,0.089 0.154,0.12 0.07,0.031 0.149,0.046 0.236,0.046 0.078,0 0.147,-0.012 0.206,-0.035 0.06,-0.023 0.104,-0.055 0.133,-0.095 0.029,-0.041 0.043,-0.085 0.043,-0.132 0,-0.048 -0.014,-0.09 -0.042,-0.126 -0.027,-0.036 -0.074,-0.066 -0.138,-0.091 -0.041,-0.016 -0.133,-0.041 -0.274,-0.075 -0.142,-0.034 -0.241,-0.066 -0.297,-0.096 -0.074,-0.039 -0.128,-0.087 -0.164,-0.144 -0.036,-0.057 -0.054,-0.121 -0.054,-0.191 0,-0.078 0.022,-0.151 0.066,-0.218 0.044,-0.068 0.108,-0.119 0.193,-0.155 0.085,-0.035 0.179,-0.052 0.283,-0.052 0.114,0 0.214,0.018 0.301,0.055 0.087,0.037 0.154,0.091 0.201,0.162 0.047,0.072 0.072,0.153 0.076,0.243l-0.196 0.015c-0.01,-0.097 -0.046,-0.171 -0.106,-0.22 -0.061,-0.05 -0.15,-0.075 -0.268,-0.075 -0.124,0 -0.214,0.023 -0.27,0.068 -0.056,0.045 -0.084,0.1 -0.084,0.163 0,0.056 0.02,0.101 0.059,0.137 0.04,0.035 0.142,0.072 0.307,0.11 0.166,0.037 0.28,0.07 0.341,0.098 0.089,0.041 0.156,0.093 0.198,0.156 0.043,0.063 0.064,0.136 0.064,0.219 0,0.082 -0.023,0.158 -0.07,0.231 -0.047,0.072 -0.114,0.128 -0.202,0.168 -0.088,0.041 -0.186,0.061 -0.296,0.061 -0.139,0 -0.256,-0.021 -0.35,-0.061 -0.094,-0.041 -0.167,-0.102 -0.221,-0.183 -0.053,-0.082 -0.081,-0.174 -0.084,-0.277zm2.238 0.134l0.195 0.025c-0.03,0.114 -0.087,0.202 -0.17,0.265 -0.083,0.063 -0.189,0.094 -0.319,0.094 -0.162,0 -0.291,-0.05 -0.387,-0.15 -0.095,-0.1 -0.143,-0.241 -0.143,-0.422 0,-0.187 0.048,-0.332 0.145,-0.435 0.096,-0.104 0.221,-0.156 0.375,-0.156 0.149,0 0.27,0.051 0.364,0.152 0.094,0.102 0.142,0.244 0.142,0.428 0,0.011 -0.001,0.028 -0.001,0.05l-0.831 0c0.007,0.122 0.041,0.216 0.104,0.281 0.062,0.065 0.139,0.098 0.232,0.098 0.069,0 0.129,-0.019 0.177,-0.055 0.049,-0.037 0.088,-0.095 0.117,-0.175zm-0.619 -0.304l0.621 0c-0.008,-0.093 -0.032,-0.164 -0.071,-0.211 -0.06,-0.072 -0.138,-0.109 -0.234,-0.109 -0.087,0 -0.159,0.029 -0.219,0.087 -0.058,0.058 -0.091,0.136 -0.097,0.233zm1.053 0.665l0 -1.116 0.17 0 0 0.158c0.035,-0.055 0.081,-0.099 0.139,-0.132 0.059,-0.033 0.124,-0.05 0.199,-0.05 0.082,0 0.15,0.018 0.202,0.052 0.053,0.034 0.09,0.082 0.112,0.143 0.089,-0.13 0.204,-0.195 0.346,-0.195 0.111,0 0.196,0.031 0.256,0.092 0.06,0.061 0.09,0.156 0.09,0.283l0 0.765 -0.19 0 0 -0.702c0,-0.076 -0.006,-0.13 -0.018,-0.164 -0.012,-0.033 -0.034,-0.059 -0.067,-0.08 -0.032,-0.02 -0.07,-0.03 -0.114,-0.03 -0.079,0 -0.144,0.026 -0.196,0.078 -0.052,0.052 -0.077,0.136 -0.077,0.25l0 0.648 -0.19 0 0 -0.724c0,-0.084 -0.015,-0.147 -0.046,-0.189 -0.031,-0.042 -0.081,-0.063 -0.151,-0.063 -0.053,0 -0.102,0.014 -0.147,0.042 -0.045,0.028 -0.078,0.068 -0.098,0.123 -0.02,0.053 -0.031,0.131 -0.031,0.233l0 0.578 -0.189 0zm2.52 -0.14c-0.07,0.06 -0.138,0.102 -0.203,0.127 -0.065,0.024 -0.134,0.036 -0.209,0.036 -0.122,0 -0.217,-0.029 -0.283,-0.089 -0.066,-0.06 -0.098,-0.136 -0.098,-0.229 0,-0.054 0.012,-0.104 0.037,-0.149 0.025,-0.045 0.057,-0.081 0.098,-0.108 0.04,-0.028 0.085,-0.048 0.136,-0.062 0.037,-0.01 0.093,-0.019 0.168,-0.029 0.153,-0.018 0.266,-0.039 0.338,-0.065 0,-0.025 0.001,-0.042 0.001,-0.049 0,-0.076 -0.018,-0.13 -0.054,-0.162 -0.048,-0.043 -0.12,-0.064 -0.216,-0.064 -0.089,0 -0.155,0.016 -0.197,0.047 -0.043,0.031 -0.074,0.087 -0.094,0.166l-0.185 -0.026c0.017,-0.079 0.044,-0.143 0.083,-0.192 0.039,-0.048 0.094,-0.086 0.168,-0.112 0.072,-0.026 0.157,-0.04 0.253,-0.04 0.096,0 0.173,0.012 0.233,0.034 0.06,0.023 0.104,0.051 0.132,0.085 0.028,0.034 0.047,0.077 0.059,0.129 0.006,0.032 0.009,0.09 0.009,0.173l0 0.251c0,0.175 0.004,0.286 0.012,0.333 0.007,0.047 0.023,0.092 0.046,0.135l-0.198 0c-0.019,-0.04 -0.031,-0.087 -0.036,-0.14zm-0.015 -0.419c-0.069,0.028 -0.172,0.051 -0.31,0.071 -0.078,0.011 -0.133,0.023 -0.165,0.037 -0.033,0.014 -0.057,0.035 -0.075,0.061 -0.017,0.027 -0.026,0.057 -0.026,0.09 0,0.05 0.019,0.092 0.057,0.125 0.038,0.033 0.094,0.05 0.168,0.05 0.072,0 0.137,-0.016 0.194,-0.048 0.057,-0.031 0.099,-0.074 0.125,-0.129 0.021,-0.043 0.031,-0.106 0.031,-0.188l0.001 -0.069zm0.482 0.559l0 -1.116 0.169 0 0 0.158c0.082,-0.121 0.2,-0.182 0.355,-0.182 0.067,0 0.129,0.013 0.185,0.037 0.056,0.024 0.098,0.055 0.126,0.095 0.028,0.039 0.048,0.085 0.059,0.139 0.007,0.035 0.011,0.096 0.011,0.184l0 0.685 -0.19 0 0 -0.678c0,-0.077 -0.007,-0.135 -0.021,-0.173 -0.015,-0.038 -0.041,-0.068 -0.079,-0.091 -0.037,-0.023 -0.081,-0.034 -0.131,-0.034 -0.08,0 -0.149,0.025 -0.208,0.076 -0.058,0.051 -0.087,0.148 -0.087,0.291l0 0.609 -0.189 0zm1.924 -0.14c-0.07,0.06 -0.138,0.102 -0.203,0.127 -0.065,0.024 -0.134,0.036 -0.209,0.036 -0.122,0 -0.217,-0.029 -0.282,-0.089 -0.066,-0.06 -0.099,-0.136 -0.099,-0.229 0,-0.054 0.012,-0.104 0.037,-0.149 0.025,-0.045 0.058,-0.081 0.098,-0.108 0.04,-0.028 0.085,-0.048 0.136,-0.062 0.037,-0.01 0.093,-0.019 0.168,-0.029 0.153,-0.018 0.266,-0.039 0.338,-0.065 0,-0.025 0.001,-0.042 0.001,-0.049 0,-0.076 -0.018,-0.13 -0.054,-0.162 -0.048,-0.043 -0.12,-0.064 -0.216,-0.064 -0.089,0 -0.155,0.016 -0.197,0.047 -0.043,0.031 -0.074,0.087 -0.094,0.166l-0.185 -0.026c0.017,-0.079 0.044,-0.143 0.083,-0.192 0.039,-0.048 0.095,-0.086 0.168,-0.112 0.072,-0.026 0.157,-0.04 0.253,-0.04 0.096,0 0.173,0.012 0.233,0.034 0.06,0.023 0.104,0.051 0.132,0.085 0.028,0.034 0.047,0.077 0.059,0.129 0.006,0.032 0.009,0.09 0.009,0.173l0 0.251c0,0.175 0.004,0.286 0.012,0.333 0.008,0.047 0.023,0.092 0.046,0.135l-0.198 0c-0.019,-0.04 -0.031,-0.087 -0.036,-0.14zm-0.015 -0.419c-0.069,0.028 -0.172,0.051 -0.31,0.071 -0.078,0.011 -0.133,0.023 -0.165,0.037 -0.032,0.014 -0.057,0.035 -0.075,0.061 -0.017,0.027 -0.026,0.057 -0.026,0.09 0,0.05 0.019,0.092 0.057,0.125 0.038,0.033 0.094,0.05 0.168,0.05 0.072,0 0.137,-0.016 0.194,-0.048 0.057,-0.031 0.099,-0.074 0.125,-0.129 0.021,-0.043 0.031,-0.106 0.031,-0.188l0.001 -0.069z"/>
 </g>
</svg>
