<?xml version="1.0" encoding="UTF-8"?>
<!DOCTYPE svg PUBLIC "-//W3C//DTD SVG 1.1//EN" "http://www.w3.org/Graphics/SVG/1.1/DTD/svg11.dtd">
<!-- Creator: CorelDRAW 2020 (64 Bit) -->
<svg xmlns="http://www.w3.org/2000/svg" xml:space="preserve" width="35px" height="36px" version="1.1" style="shape-rendering:geometricPrecision; text-rendering:geometricPrecision; image-rendering:optimizeQuality; fill-rule:evenodd; clip-rule:evenodd"
viewBox="0 0 0.988 1.017"
 xmlns:xlink="http://www.w3.org/1999/xlink"
 xmlns:xodm="http://www.corel.com/coreldraw/odm/2003">
 <defs>
  <style type="text/css">
   <![CDATA[
    .fil0 {fill:red}
   ]]>
  </style>
 </defs>
 <g id="Camada_x0020_1">
  <metadata id="CorelCorpID_0Corel-Layer"/>
  <path class="fil0" d="M0.646 0.256c0.075,0.123 0.592,0.761 0.191,0.761l-0.678 0c-0.41,0 0.091,-0.598 0.19,-0.761l0 -0.256 0.297 0 0 0.256zm-0.459 0.719c-0.375,0 0.105,-0.549 0.196,-0.698l0 -0.234 0.228 0 0 0.234c0.069,0.113 0.564,0.698 0.197,0.698l-0.621 0zm0.649 -0.338c0.117,0.191 0.142,0.321 -0.025,0.327l-0.634 0c-0.167,-0.013 -0.143,-0.125 -0.016,-0.327l0.675 0z"/>
 </g>
</svg>
