<?xml version="1.0" encoding="UTF-8"?>
<!DOCTYPE svg PUBLIC "-//W3C//DTD SVG 1.1//EN" "http://www.w3.org/Graphics/SVG/1.1/DTD/svg11.dtd">
<!-- Creator: CorelDRAW 2020 (64 Bit) -->
<svg xmlns="http://www.w3.org/2000/svg" xml:space="preserve" width="211px" height="156px" version="1.1" style="shape-rendering:geometricPrecision; text-rendering:geometricPrecision; image-rendering:optimizeQuality; fill-rule:evenodd; clip-rule:evenodd"
viewBox="0 0 14.211 10.524"
 xmlns:xlink="http://www.w3.org/1999/xlink"
 xmlns:xodm="http://www.corel.com/coreldraw/odm/2003">
 <defs>
  <style type="text/css">
   <![CDATA[
    .fil0 {fill:red}
   ]]>
  </style>
 </defs>
 <g id="Camada_x0020_1">
  <metadata id="CorelCorpID_0Corel-Layer"/>
  <path id="iconLab.svg" class="fil0" d="M9.292 2.65c1.078,1.27 8.519,7.874 2.749,7.874l-9.752 0c-5.901,0 1.303,-6.187 2.737,-7.874l0 -2.65 4.266 0 0 2.65zm-6.6 7.439c-5.392,0 1.505,-5.684 2.82,-7.226l0 -2.42 3.282 0 0 2.42c0.983,1.167 8.105,7.226 2.832,7.226l-8.934 0zm9.337 -3.502c1.682,1.977 2.038,3.323 -0.368,3.383l-9.111 0c-2.406,-0.137 -2.062,-1.296 -0.237,-3.383l9.716 0z"/>
 </g>
</svg>
