<?xml version="1.0" encoding="UTF-8"?>
<!DOCTYPE svg PUBLIC "-//W3C//DTD SVG 1.1//EN" "http://www.w3.org/Graphics/SVG/1.1/DTD/svg11.dtd">
<!-- Creator: CorelDRAW 2020 (64 Bit) -->
<svg xmlns="http://www.w3.org/2000/svg" xml:space="preserve" width="37px" height="52px" version="1.1" style="shape-rendering:geometricPrecision; text-rendering:geometricPrecision; image-rendering:optimizeQuality; fill-rule:evenodd; clip-rule:evenodd"
viewBox="0 0 2.043 2.83"
 xmlns:xlink="http://www.w3.org/1999/xlink"
 xmlns:xodm="http://www.corel.com/coreldraw/odm/2003">
 <defs>
  <style type="text/css">
   <![CDATA[
    .fil0 {fill:red;fill-rule:nonzero}
   ]]>
  </style>
 </defs>
 <g id="Camada_x0020_1">
  <metadata id="CorelCorpID_0Corel-Layer"/>
  <g>
   <path id="lupa" class="fil0" d="M0.714 1.613l-0.057 -0.033 0.081 -0.142 0.057 0.032 0.031 0.112 -0.112 0.031zm0.112 -0.031l-0.04 0.071 -0.072 -0.04 0.112 -0.031zm0.107 -0.188l-0.107 0.188 -0.142 -0.081 0.106 -0.188 0.118 -0.027 0.025 0.108zm-0.143 -0.081l0.045 -0.078 0.073 0.051 -0.118 0.027zm0.168 0.004l-0.081 0.143 0 0 -0.002 -0.002 -0.002 -0.001 -0.002 -0.001 -0.003 -0.001 -0.001 -0.001 -0.003 -0.002 -0.002 -0.001 -0.001 0 -0.002 -0.002 -0.003 -0.001 -0.001 -0.001 -0.002 -0.001 -0.003 -0.002 -0.001 -0.001 -0.002 -0.001 -0.002 -0.001 -0.002 -0.001 -0.002 -0.002 -0.001 -0.001 -0.002 -0.001 -0.003 -0.002 -0.002 -0.001 -0.001 -0.001 -0.002 -0.001 -0.002 -0.002 -0.002 -0.001 -0.002 -0.001 -0.002 -0.001 -0.001 -0.001 -0.003 -0.002 -0.001 -0.001 -0.002 -0.001 0.093 -0.135 0.002 0.001 0.002 0.001 0.001 0.001 0.001 0.001 0.002 0.001 0.001 0.001 0.002 0.001 0.001 0.001 0.002 0.001 0.002 0.002 0.001 0 0.001 0.001 0.002 0.001 0.002 0.001 0.001 0.001 0.002 0.001 0.001 0.001 0.002 0.001 0.002 0.001 0.001 0.001 0.002 0.001 0.001 0.001 0.001 0.001 0.002 0 0.002 0.002 0.001 0.001 0.002 0.001 0.002 0.001 0.001 0 0.001 0.001 0.002 0.001 0.002 0.001 0 0zm0.089 0.141l-0.143 -0.08 0.038 0.115 -0.002 -0.001 -0.002 -0.001 -0.002 -0.001 -0.002 -0.001 -0.002 -0.001 -0.002 -0.001 -0.003 -0.001 -0.002 -0.001 -0.001 -0.001 -0.003 -0.001 -0.001 -0.001 -0.003 -0.001 -0.001 -0.001 -0.002 -0.001 -0.003 -0.001 -0.002 -0.001 -0.002 -0.001 -0.002 -0.001 -0.002 -0.001 -0.002 -0.001 -0.002 -0.001 -0.002 -0.001 -0.002 -0.001 -0.002 -0.001 -0.002 -0.002 -0.002 -0.001 -0.002 -0.001 -0.002 -0.001 -0.002 -0.001 -0.002 -0.001 -0.002 -0.001 -0.002 -0.001 0.081 -0.143 0.001 0.001 0.002 0.001 0.002 0.001 0 0 0.002 0.001 0.002 0.002 0.002 0 0.001 0.001 0.002 0.001 0.002 0.001 0.001 0 0.002 0.001 0.001 0.001 0.002 0.001 0.001 0.001 0.002 0.001 0.002 0.001 0.001 0 0.002 0.001 0.002 0.001 0.001 0.001 0.002 0.001 0.001 0 0.003 0.001 0.001 0.001 0.001 0.001 0.002 0 0.002 0.001 0.002 0.001 0.001 0.001 0.002 0.001 0.002 0 0.037 0.115zm-0.037 -0.115l0.081 0.037 -0.044 0.078 -0.037 -0.115zm-0.212 0.223l0.106 -0.188 0.143 0.08 -0.107 0.189 -0.111 0.03 -0.031 -0.111zm0.031 0.111l-0.072 -0.04 0.041 -0.071 0.031 0.111zm0.057 0.033l-0.057 -0.033 0.08 -0.142 0.057 0.032 0.031 0.112 -0.111 0.031zm0.08 -0.143l0.072 0.041 -0.041 0.071 -0.031 -0.112zm-0.716 1.096l0.605 -1.065 0.142 0.081 -0.604 1.065 0 0 -0.143 -0.081zm-0.088 0.145l0.081 -0.143 0 0 0 0.001 0 0 0.001 0 0 0 0 0 0 0 0 0 0.001 0 0 0 0 0 0 0 0.001 0 0 0 0 0 0.001 0 0 0 0.001 0 0 0 0 0 0 -0.001 0 0 0 0 0.001 0 0 0 0 0 0 -0.001 0.001 0 0 0 0 0 0 0 0 -0.001 0 0 0.143 0.081 -0.005 0.008 -0.004 0.007 -0.006 0.007 -0.005 0.006 -0.006 0.007 -0.006 0.005 -0.006 0.006 -0.006 0.005 -0.007 0.005 -0.007 0.004 -0.007 0.005 -0.007 0.003 -0.007 0.004 -0.008 0.003 -0.008 0.003 -0.007 0.002 -0.008 0.002 -0.008 0.001 -0.008 0.002 -0.009 0 -0.008 0.001 -0.008 0 -0.008 0 -0.008 -0.001 -0.008 -0.001 -0.008 -0.002 -0.009 -0.002 -0.008 -0.002 -0.008 -0.003 -0.008 -0.003 -0.008 -0.004 -0.007 -0.004 0 0zm0.005 -0.186l0.076 0.043 -0.081 0.143 -0.076 -0.043 0 0 0.081 -0.143zm-0.145 -0.088l0.143 0.081 0 0 -0.001 0 0 0 0 0.001 0 0 0 0 0 0 0 0 0 0.001 0 0 0 0 0 0 0 0 0 0.001 0 0 0 0.001 0 0 0 0 0 0.001 0 -0.001 0.001 0.001 0 0 0 0 0 0.001 0 0 0 0 0 0 0 0 0.001 0.001 0 0 0 0 0 0 0.001 0 -0.081 0.143 -0.008 -0.005 -0.007 -0.004 -0.007 -0.006 -0.006 -0.005 -0.006 -0.006 -0.006 -0.006 -0.006 -0.006 -0.005 -0.007 -0.005 -0.006 -0.004 -0.007 -0.005 -0.007 -0.003 -0.007 -0.004 -0.007 -0.003 -0.008 -0.003 -0.008 -0.002 -0.007 -0.002 -0.009 -0.001 -0.007 -0.002 -0.008 0 -0.008 -0.001 -0.009 0 -0.008 0 -0.008 0.001 -0.008 0.001 -0.008 0.002 -0.008 0.002 -0.009 0.002 -0.008 0.003 -0.008 0.003 -0.008 0.004 -0.008 0.004 -0.007 0 0zm0.747 -0.985l-0.604 1.066 -0.143 -0.081 0.604 -1.065 0.112 -0.031 0.031 0.111zm-0.143 -0.08l0.041 -0.072 0.071 0.041 -0.112 0.031zm1.315 -0.303l-0.143 -0.081 0 0 0.015 -0.028 0.014 -0.028 0.012 -0.029 0.01 -0.029 0.009 -0.03 0.007 -0.029 0.006 -0.03 0.004 -0.03 0.003 -0.029 0.001 -0.03 0 -0.03 -0.002 -0.03 -0.003 -0.029 -0.004 -0.03 -0.006 -0.029 -0.007 -0.028 -0.009 -0.029 -0.01 -0.028 -0.011 -0.027 -0.013 -0.027 -0.013 -0.026 -0.016 -0.026 -0.016 -0.025 -0.018 -0.024 -0.018 -0.024 -0.021 -0.022 -0.021 -0.022 -0.022 -0.02 -0.024 -0.02 -0.025 -0.019 -0.026 -0.017 -0.027 -0.017 0.08 -0.142 0.035 0.02 0.033 0.023 0.031 0.023 0.03 0.025 0.029 0.026 0.027 0.028 0.025 0.028 0.024 0.03 0.023 0.031 0.021 0.031 0.019 0.033 0.017 0.033 0.016 0.034 0.014 0.035 0.013 0.035 0.011 0.036 0.009 0.036 0.007 0.037 0.006 0.037 0.003 0.038 0.002 0.037 0.001 0.038 -0.002 0.038 -0.003 0.037 -0.006 0.038 -0.007 0.038 -0.009 0.037 -0.011 0.037 -0.013 0.037 -0.015 0.037 -0.017 0.036 -0.019 0.035 0 0zm-1 0.326l0.07 -0.148 -0.002 -0.001 0.028 0.012 0.027 0.01 0.027 0.009 0.028 0.007 0.028 0.006 0.028 0.004 0.028 0.004 0.028 0.002 0.028 0.001 0.029 -0.001 0.027 -0.002 0.028 -0.003 0.028 -0.004 0.027 -0.006 0.027 -0.007 0.027 -0.008 0.027 -0.009 0.025 -0.01 0.026 -0.012 0.025 -0.012 0.024 -0.014 0.024 -0.015 0.023 -0.016 0.023 -0.017 0.021 -0.019 0.021 -0.019 0.02 -0.021 0.02 -0.021 0.018 -0.023 0.018 -0.023 0.016 -0.025 0.015 -0.026 0.143 0.081 -0.019 0.032 -0.021 0.032 -0.022 0.03 -0.024 0.028 -0.024 0.027 -0.026 0.026 -0.026 0.025 -0.028 0.023 -0.028 0.022 -0.029 0.02 -0.031 0.019 -0.03 0.018 -0.032 0.016 -0.032 0.015 -0.033 0.013 -0.033 0.011 -0.034 0.01 -0.034 0.009 -0.035 0.007 -0.035 0.006 -0.035 0.003 -0.036 0.003 -0.035 0 -0.036 0 -0.035 -0.003 -0.036 -0.004 -0.035 -0.006 -0.036 -0.008 -0.035 -0.009 -0.035 -0.011 -0.035 -0.013 -0.034 -0.014 -0.001 -0.001zm0.001 0.001l-0.001 -0.001 0.001 0.001 0 0zm0.068 -0.149l0.001 0 -0.07 0.148 -0.001 0 0.069 -0.149 0.001 0.001zm-0.001 -0.001l0.001 0.001 0 0 -0.001 -0.001zm-0.001 0l0.001 0 -0.068 0.149 -0.001 0 0.066 -0.15 0.002 0.001zm-0.002 -0.001l0.002 0.001 -0.001 -0.001 -0.001 0zm-0.001 -0.001l0.001 0.001 -0.064 0.15 -0.001 0 -0.002 -0.001 0.066 -0.15zm-0.064 0.151l-0.002 -0.001 0.001 0.001 0.001 0zm0.065 -0.15l0.001 0 -0.068 0.149 -0.001 0 -0.001 -0.001 0.069 -0.148zm-0.068 0.149l-0.001 -0.001 0 0 0.001 0.001zm0.068 -0.149l0.001 0 -0.07 0.148 -0.001 0 0.069 -0.149 0.001 0.001zm-0.001 -0.001l0.001 0.001 0.001 0 -0.002 -0.001zm-0.001 0l0.001 0 -0.068 0.15 -0.001 -0.001 -0.001 -0.001 0.069 -0.148zm-0.068 0.149l-0.001 -0.001 0 0 0.001 0.001zm0.069 -0.149l0 0.001 -0.07 0.147 -0.001 0 0.066 -0.15 0.005 0.002zm-0.005 -0.002l0.003 0.001 0.002 0.001 -0.005 -0.002zm-0.001 0l0.001 0 -0.062 0.152 -0.001 0 -0.007 -0.004 0.069 -0.148zm-0.062 0.152l-0.004 -0.002 -0.003 -0.002 0.007 0.004zm0.068 -0.149l0.001 0 -0.076 0.145 -0.001 0 0.073 -0.147 0.003 0.002zm-0.003 -0.002l0.002 0.001 0.001 0.001 -0.003 -0.002zm-0.006 -0.003l0.006 0.003 -0.069 0.148 -0.007 -0.003 0 0 0.07 -0.148zm-0.07 0.148l0 0 0.001 0.001 -0.001 -0.001zm0.069 -0.148l0.001 0 -0.07 0.148 -0.001 0 0 0 0.07 -0.148zm-0.001 -0.001l0.001 0.001 -0.07 0.148 -0.001 -0.001 -0.001 0 0.071 -0.148zm-0.07 0.148l-0.001 0 0 0 0.001 0zm0.071 -0.147l0.001 0 -0.073 0.147 -0.001 -0.001 0.071 -0.147 0.002 0.001zm-0.002 -0.001l0.001 0 0.001 0.001 -0.002 -0.001zm0 -0.001l0 0.001 -0.07 0.148 -0.001 -0.001 -0.003 -0.001 0.074 -0.147zm-0.071 0.148l-0.002 0 -0.001 -0.001 0.003 0.001zm0.072 -0.147l0.001 0.001 -0.076 0.145 -0.001 0 0.074 -0.147 0.002 0.001zm-0.002 -0.001l0.001 0.001 0.001 0 -0.002 -0.001zm-0.001 0l0.001 0 -0.071 0.148 -0.001 -0.001 0.069 -0.148 0.002 0.001zm-0.002 -0.001l0.002 0.001 0 0 -0.002 -0.001zm-0.001 -0.001l0.001 0.001 -0.067 0.149 -0.001 0 -0.003 -0.002 0.07 -0.148zm-0.067 0.15l-0.002 -0.001 -0.001 -0.001 0.003 0.002zm0.069 -0.149l0.001 0.001 -0.073 0.146 -0.001 0 0.072 -0.147 0.001 0zm-0.001 0l0.001 0 0 0 -0.001 0zm-0.001 -0.001l0.001 0.001 -0.071 0.148 -0.001 -0.001 -0.002 -0.001 0.073 -0.147zm-0.071 0.148l-0.001 0 -0.001 -0.001 0.002 0.001zm0.071 -0.148l0.002 0.001 -0.075 0.146 -0.001 -0.001 0.072 -0.147 0.002 0.001zm-0.002 -0.001l0.001 0.001 0.001 0 -0.002 -0.001zm-0.001 0l0.001 0 -0.07 0.148 -0.001 0 -0.001 -0.001 0.071 -0.147zm-0.07 0.148l-0.001 -0.001 0 0 0.001 0.001zm0.068 -0.149l0.003 0.001 -0.072 0.147 -0.004 -0.002 -0.004 -0.002 0.077 -0.144zm-0.073 0.146l-0.002 -0.001 -0.002 -0.001 0.004 0.002zm0.076 -0.145l0.001 0.001 -0.081 0.142 -0.001 0 0.074 -0.146 0.007 0.003zm-0.007 -0.003l0.004 0.002 0.003 0.001 -0.007 -0.003zm-0.001 -0.001l0.001 0.001 -0.067 0.149 -0.001 0 -0.005 -0.002 0.072 -0.148zm-0.067 0.15l-0.003 -0.002 -0.002 0 0.005 0.002zm0.071 -0.148l0 0 -0.076 0.146 0 -0.001 0.074 -0.146 0.002 0.001zm-0.002 -0.001l0.002 0.001 0 0 -0.002 -0.001zm-0.001 0l0.001 0 -0.073 0.147 -0.001 -0.001 -0.003 -0.001 0.076 -0.145zm-0.073 0.146l-0.001 0 -0.002 -0.001 0.003 0.001zm0.075 -0.145l0.001 0 -0.079 0.144 -0.001 -0.001 0.077 -0.144 0.002 0.001zm-0.002 -0.001l0.001 0 0.001 0.001 -0.002 -0.001zm-0.004 -0.003l0.004 0.003 -0.075 0.145 -0.004 -0.002 -0.001 0 0.076 -0.146zm-0.075 0.146l-0.001 0 -0.003 -0.002 0.004 0.002zm0.074 -0.146l0.001 0.001 -0.076 0.145 -0.001 -0.001 -0.001 0 0.077 -0.145zm-0.076 0.145l-0.001 0 0.003 0.001 -0.002 -0.001zm0.077 -0.145l0 0.001 -0.078 0.144 -0.001 -0.001 0.076 -0.145 0.003 0.001zm-0.003 -0.001l0.001 0 0.002 0.001 -0.003 -0.001zm-0.001 0l0.001 0 -0.073 0.147 -0.001 -0.001 -0.002 -0.001 0.075 -0.145zm-0.073 0.146l-0.002 -0.001 0 0 0.002 0.001zm0.074 -0.146l0 0 -0.076 0.145 0 0 -0.004 -0.002 0.08 -0.143zm-0.076 0.145l-0.002 -0.001 -0.002 -0.001 0.004 0.002zm0.078 -0.144l0.001 0.001 -0.083 0.141 0 0 0.081 -0.143 0.001 0.001zm-0.001 -0.001l0.001 0.001 0.001 0.001 -0.002 -0.002zm-0.001 0l0.001 0 -0.08 0.144 0 -0.001 0.079 -0.143 0 0zm0 0l0 0 0.001 0 -0.001 0zm-0.001 -0.001l0.001 0.001 -0.079 0.144 -0.001 -0.001 0 0 0.079 -0.144zm-0.079 0.144l0 0 -0.008 -0.004 0.008 0.004zm0.066 -0.15l0.013 0.006 -0.079 0.144 -0.012 -0.007 -0.002 -0.001 0.08 -0.142zm-0.078 0.143l0 0 -0.002 -0.001 0.002 0.001zm0.079 -0.143l0.001 0 -0.082 0.142 -0.001 0 0.079 -0.144 0.003 0.002zm-0.003 -0.002l0.001 0.001 0.002 0.001 -0.003 -0.002zm-0.001 0l0.001 0 -0.076 0.145 -0.001 0 -0.002 -0.001 0.078 -0.144zm-0.076 0.145l-0.001 0 -0.001 -0.001 0.002 0.001zm0.078 -0.144l0.001 0 -0.081 0.143 -0.001 -0.001 0 0 0.081 -0.142zm-0.001 -0.001l0.001 0.001 -0.081 0.142 -0.001 -0.001 -0.001 0 0.082 -0.142zm-0.081 0.142l0 0.001 -0.001 -0.001 0.001 0zm0.069 -0.149l0.013 0.008 -0.083 0.141 -0.013 -0.007 0 -0.001 0.083 -0.141zm-0.083 0.142l0 -0.001 -0.003 -0.001 0.003 0.002zm0.083 -0.142l0.001 0.001 -0.084 0.14 -0.001 0 0.082 -0.142 0.002 0.001zm-0.002 -0.001l0.002 0.001 0 0 -0.002 -0.001zm-0.001 0l0.001 0 -0.08 0.143 0 0 -0.002 -0.001 0.081 -0.142zm-0.079 0.143l-0.002 -0.001 0 0 0.002 0.001zm0.08 -0.143l0.001 0 -0.083 0.142 0 0 -0.004 -0.002 0.086 -0.14zm-0.082 0.142l-0.001 -0.001 -0.003 -0.001 0.004 0.002zm0.085 -0.14l0.001 0 -0.09 0.138 0 -0.001 0.086 -0.139 0.003 0.002zm-0.003 -0.002l0.001 0 0.002 0.002 -0.003 -0.002zm0 0l0 0 -0.084 0.141 -0.001 -0.001 0.083 -0.141 0.002 0.001zm-0.002 -0.001l0.002 0.001 0 0 -0.002 -0.001zm-0.001 -0.001l0.001 0.001 -0.081 0.142 -0.001 -0.001 -0.004 -0.002 0.085 -0.14zm-0.081 0.142l-0.002 -0.001 -0.002 -0.001 0.004 0.002zm0.084 -0.14l0.001 0.001 -0.089 0.137 -0.001 -0.001 0.088 -0.138 0.001 0.001zm-0.001 -0.001l0 0 0.001 0.001 -0.001 -0.001zm-0.005 -0.003l0.005 0.003 -0.086 0.14 -0.005 -0.003 -0.001 -0.001 0.087 -0.139zm-0.086 0.14l0 0 -0.001 -0.001 0.001 0.001zm0.087 -0.139l0.001 0 -0.089 0.138 -0.001 -0.001 0.085 -0.14 0.004 0.003zm-0.004 -0.003l0.002 0.001 0.002 0.002 -0.004 -0.003zm-0.001 0l0.001 0 -0.081 0.143 -0.001 -0.001 -0.004 -0.002 0.085 -0.14zm-0.081 0.142l-0.002 -0.001 -0.002 -0.001 0.004 0.002zm0.084 -0.14l0.001 0 -0.089 0.138 -0.001 -0.001 0 0 0.089 -0.137zm-0.001 -0.001l0.001 0.001 -0.089 0.137 -0.001 0 0.088 -0.139 0.001 0.001zm-0.001 -0.001l0.001 0.001 -0.001 -0.001 0 0zm-0.001 0l0.001 0 -0.086 0.14 -0.001 -0.001 -0.001 0 0.087 -0.139zm-0.086 0.139l-0.001 0 0.005 0.003 -0.004 -0.003zm0.083 -0.141l0.003 0.002 -0.087 0.139 -0.003 -0.002 -0.004 -0.003 0.091 -0.136zm-0.087 0.139l-0.002 -0.002 -0.002 -0.001 0.004 0.003zm0.09 -0.138l0 0.001 -0.094 0.134 0 0 0.09 -0.137 0.004 0.002zm-0.004 -0.002l0.002 0.001 0.002 0.001 -0.004 -0.002zm-0.002 -0.001l0.002 0.001 -0.087 0.139 -0.002 -0.001 -0.001 -0.001 0.088 -0.138zm-0.087 0.139l0 0 -0.001 -0.001 0.001 0.001zm0.088 -0.139l0 0.001 -0.089 0.137 -0.001 0 0 0 0.09 -0.138zm-0.001 0l0.001 0 -0.09 0.138 -0.001 -0.001 -0.002 -0.001 0.092 -0.136zm-0.09 0.137l-0.001 -0.001 -0.001 0 0.002 0.001zm0.091 -0.136l0.001 0 -0.094 0.135 -0.001 -0.001 0.094 -0.135 0 0.001zm0 -0.001l0 0.001 0 0 0 -0.001zm-0.001 0l0.001 0 -0.093 0.135 -0.001 0 0.087 -0.139 0.006 0.004zm-0.006 -0.004l0.003 0.002 0.003 0.002 -0.006 -0.004zm-0.001 0l0.001 0 -0.081 0.142 -0.001 0 -0.006 -0.004 0.087 -0.138zm-0.081 0.142l-0.003 -0.002 -0.003 -0.002 0.006 0.004zm0.086 -0.139l0.001 0 -0.093 0.135 -0.001 0 0.091 -0.137 0.002 0.002zm-0.002 -0.002l0.002 0.001 0 0.001 -0.002 -0.002zm-0.001 0l0.001 0 -0.089 0.138 -0.001 -0.001 -0.002 -0.001 0.091 -0.136zm-0.089 0.137l-0.001 -0.001 -0.001 0 0.002 0.001zm0.091 -0.136l0.001 0 -0.094 0.135 -0.001 -0.001 0.089 -0.137 0.005 0.003zm-0.005 -0.003l0.002 0.001 0.003 0.002 -0.005 -0.003zm-0.001 -0.001l0.001 0.001 -0.084 0.14 -0.001 0 -0.004 -0.003 0.088 -0.138zm-0.084 0.141l-0.002 -0.001 -0.002 -0.002 0.004 0.003zm0.082 -0.142l0.006 0.004 -0.092 0.135 -0.006 -0.004 -0.001 0 0.093 -0.135zm-0.092 0.135l0.001 0.001 -0.002 -0.001 0.001 0zm0.092 -0.135l0.001 0 -0.094 0.135 -0.001 -0.001 0.094 -0.135 0 0.001zm0 -0.001l0 0.001 0 0 0 -0.001zm-0.001 0l0.001 0 -0.093 0.135 -0.001 0 0 0 0.093 -0.135zm-0.001 -0.001l0.001 0.001 -0.093 0.135 -0.001 -0.001 0 0 0.093 -0.135zm-0.093 0.135l0 0 0 0 0 0zm0.093 -0.135l0.001 0.001 -0.094 0.134 -0.001 -0.001 0.093 -0.134 0.001 0zm-0.001 0l0.001 0 0 0 -0.001 0zm-0.001 -0.001l0.001 0.001 -0.092 0.135 -0.001 -0.001 -0.001 0 0.093 -0.135zm-0.092 0.135l-0.001 0 0 0 0.001 0zm0.092 -0.135l0.001 0 -0.094 0.135 -0.001 -0.001 0.093 -0.135 0.001 0.001zm-0.001 -0.001l0.001 0.001 0 0 -0.001 -0.001zm0 0l0 0 -0.092 0.136 -0.001 -0.001 -0.001 0 0.094 -0.135zm-0.093 0.135l-0.001 0 0 0 0.001 0zm0.092 -0.135l0.001 0 -0.094 0.135 -0.001 -0.001 0.094 -0.135 0 0.001zm0 -0.001l0 0.001 0 0 0 -0.001zm-0.001 0l0.001 0 -0.093 0.135 -0.001 0 0 -0.001 0.093 -0.134zm-0.093 0.135l0 -0.001 0.001 0.001 -0.001 0zm-0.232 -1.026l0.143 0.081 0 0 -0.015 0.027 -0.012 0.027 -0.012 0.027 -0.01 0.027 -0.008 0.027 -0.007 0.028 -0.006 0.028 -0.005 0.028 -0.003 0.028 -0.002 0.028 -0.001 0.029 0.001 0.028 0.002 0.028 0.003 0.027 0.004 0.028 0.006 0.027 0.007 0.027 0.008 0.027 0.009 0.026 0.01 0.026 0.012 0.026 0.013 0.025 0.014 0.024 0.015 0.024 0.016 0.023 0.017 0.022 0.019 0.022 0.019 0.021 0.021 0.02 0.021 0.019 0.023 0.019 0.024 0.017 -0.094 0.134 -0.03 -0.022 -0.029 -0.023 -0.027 -0.024 -0.026 -0.026 -0.025 -0.026 -0.023 -0.028 -0.022 -0.028 -0.021 -0.029 -0.019 -0.03 -0.017 -0.031 -0.016 -0.032 -0.015 -0.032 -0.013 -0.033 -0.012 -0.033 -0.01 -0.034 -0.009 -0.034 -0.007 -0.035 -0.006 -0.035 -0.003 -0.035 -0.003 -0.035 -0.001 -0.036 0.001 -0.035 0.003 -0.036 0.004 -0.035 0.006 -0.036 0.007 -0.035 0.009 -0.036 0.011 -0.035 0.013 -0.034 0.014 -0.035 0.016 -0.033 0.018 -0.034 0 0zm1.064 -0.293l-0.08 0.142 0 0 -0.029 -0.015 -0.028 -0.013 -0.029 -0.012 -0.029 -0.01 -0.029 -0.009 -0.03 -0.007 -0.029 -0.006 -0.03 -0.004 -0.03 -0.003 -0.03 -0.001 -0.03 0 -0.029 0.002 -0.03 0.003 -0.029 0.004 -0.029 0.006 -0.029 0.007 -0.028 0.009 -0.028 0.01 -0.028 0.011 -0.027 0.012 -0.026 0.014 -0.026 0.015 -0.024 0.017 -0.025 0.017 -0.023 0.019 -0.023 0.02 -0.021 0.022 -0.021 0.022 -0.02 0.024 -0.018 0.025 -0.018 0.026 -0.016 0.027 -0.143 -0.081 0.021 -0.034 0.022 -0.033 0.024 -0.032 0.025 -0.03 0.026 -0.028 0.027 -0.027 0.029 -0.026 0.03 -0.024 0.03 -0.022 0.032 -0.021 0.032 -0.019 0.034 -0.017 0.034 -0.016 0.034 -0.015 0.036 -0.012 0.035 -0.011 0.037 -0.009 0.036 -0.007 0.038 -0.006 0.037 -0.004 0.037 -0.002 0.038 0 0.038 0.002 0.038 0.003 0.038 0.005 0.037 0.008 0.038 0.009 0.037 0.011 0.037 0.013 0.036 0.015 0.036 0.017 0.035 0.019 0 0z"/>
  </g>
 </g>
</svg>
