<?xml version="1.0" encoding="UTF-8"?>
<!DOCTYPE svg PUBLIC "-//W3C//DTD SVG 1.1//EN" "http://www.w3.org/Graphics/SVG/1.1/DTD/svg11.dtd">
<!-- Creator: CorelDRAW 2020 (64 Bit) -->
<svg xmlns="http://www.w3.org/2000/svg" xml:space="preserve" width="67px" height="49px" version="1.1" style="shape-rendering:geometricPrecision; text-rendering:geometricPrecision; image-rendering:optimizeQuality; fill-rule:evenodd; clip-rule:evenodd"
viewBox="0 0 11.309 8.311"
 xmlns:xlink="http://www.w3.org/1999/xlink"
 xmlns:xodm="http://www.corel.com/coreldraw/odm/2003">
 <defs>
  <style type="text/css">
   <![CDATA[
    .fil0 {fill:red}
    .fil1 {fill:white;fill-rule:nonzero}
   ]]>
  </style>
 </defs>
 <g id="Camada_x0020_1">
  <metadata id="CorelCorpID_0Corel-Layer"/>
  <g id="_2096755057328">
   <polygon class="fil0" points="11.309,0 0,0 0,8.311 11.309,8.311 "/>
   <g>
    <path class="fil1" d="M8.362 3.652l-0.628 0 0 0 -0.003 -0.107 -0.008 -0.106 -0.013 -0.104 -0.018 -0.103 -0.023 -0.1 -0.028 -0.099 -0.033 -0.096 -0.037 -0.095 -0.042 -0.091 -0.046 -0.09 -0.05 -0.087 -0.054 -0.085 -0.058 -0.081 -0.062 -0.079 -0.065 -0.075 -0.069 -0.073 -0.072 -0.069 -0.076 -0.065 -0.078 -0.062 -0.082 -0.058 -0.084 -0.054 -0.088 -0.05 -0.089 -0.046 -0.092 -0.041 -0.094 -0.038 -0.097 -0.032 -0.099 -0.028 -0.1 -0.023 -0.102 -0.019 -0.105 -0.013 -0.105 -0.008 -0.107 -0.003 0 -0.628 0.139 0.004 0.137 0.01 0.135 0.017 0.134 0.024 0.131 0.03 0.128 0.037 0.126 0.042 0.123 0.049 0.121 0.054 0.116 0.06 0.114 0.065 0.11 0.071 0.106 0.075 0.102 0.08 0.098 0.086 0.094 0.089 0.09 0.094 0.085 0.098 0.08 0.103 0.076 0.106 0.07 0.11 0.065 0.113 0.06 0.117 0.054 0.12 0.049 0.123 0.043 0.126 0.036 0.128 0.03 0.132 0.024 0.133 0.017 0.135 0.011 0.138 0.003 0.139 0 0zm-2.707 2.708l0 -0.628 0 0 0.107 -0.003 0.105 -0.008 0.105 -0.013 0.102 -0.019 0.1 -0.023 0.099 -0.028 0.097 -0.033 0.094 -0.037 0.092 -0.041 0.09 -0.046 0.087 -0.05 0.084 -0.054 0.082 -0.059 0.078 -0.061 0.076 -0.066 0.072 -0.068 0.069 -0.073 0.065 -0.075 0.062 -0.079 0.058 -0.082 0.054 -0.084 0.05 -0.087 0.046 -0.09 0.042 -0.092 0.037 -0.094 0.033 -0.096 0.028 -0.099 0.023 -0.101 0.018 -0.102 0.013 -0.104 0.008 -0.106 0.003 -0.107 0.628 0 -0.003 0.139 -0.011 0.138 -0.017 0.135 -0.024 0.133 -0.03 0.132 -0.036 0.128 -0.043 0.126 -0.049 0.123 -0.054 0.12 -0.06 0.117 -0.065 0.113 -0.07 0.11 -0.076 0.106 -0.08 0.102 -0.085 0.099 -0.09 0.094 -0.094 0.089 -0.098 0.086 -0.102 0.08 -0.106 0.075 -0.11 0.071 -0.114 0.065 -0.116 0.06 -0.12 0.054 -0.124 0.049 -0.126 0.042 -0.128 0.037 -0.131 0.03 -0.134 0.024 -0.135 0.017 -0.137 0.01 -0.139 0.004 0 0zm-2.708 -2.708l0.628 0 0 0 0.003 0.107 0.008 0.106 0.013 0.104 0.018 0.102 0.023 0.101 0.028 0.099 0.033 0.096 0.037 0.094 0.042 0.092 0.046 0.09 0.05 0.087 0.054 0.084 0.058 0.082 0.062 0.079 0.065 0.075 0.069 0.073 0.072 0.068 0.076 0.066 0.078 0.062 0.082 0.058 0.084 0.054 0.087 0.05 0.09 0.046 0.092 0.041 0.094 0.037 0.097 0.033 0.099 0.028 0.1 0.023 0.102 0.019 0.105 0.013 0.105 0.008 0.108 0.003 0 0.628 -0.139 -0.004 -0.138 -0.01 -0.135 -0.017 -0.134 -0.024 -0.131 -0.03 -0.128 -0.037 -0.126 -0.042 -0.124 -0.049 -0.12 -0.054 -0.116 -0.06 -0.114 -0.065 -0.11 -0.071 -0.106 -0.075 -0.102 -0.08 -0.098 -0.086 -0.094 -0.089 -0.09 -0.094 -0.085 -0.099 -0.08 -0.102 -0.076 -0.106 -0.07 -0.11 -0.065 -0.113 -0.06 -0.117 -0.054 -0.12 -0.049 -0.123 -0.043 -0.126 -0.036 -0.128 -0.03 -0.132 -0.024 -0.133 -0.017 -0.135 -0.011 -0.138 -0.003 -0.139 0 0zm2.708 -2.708l0 0.628 0 0 -0.108 0.003 -0.105 0.008 -0.105 0.013 -0.102 0.019 -0.1 0.023 -0.099 0.028 -0.097 0.032 -0.094 0.038 -0.092 0.041 -0.089 0.046 -0.088 0.05 -0.084 0.054 -0.082 0.058 -0.078 0.062 -0.076 0.065 -0.072 0.069 -0.069 0.073 -0.065 0.075 -0.062 0.079 -0.058 0.081 -0.054 0.085 -0.05 0.087 -0.046 0.09 -0.042 0.091 -0.037 0.095 -0.033 0.096 -0.028 0.099 -0.023 0.1 -0.018 0.103 -0.013 0.104 -0.008 0.106 -0.003 0.107 -0.628 0 0.003 -0.139 0.011 -0.138 0.017 -0.135 0.024 -0.133 0.03 -0.132 0.036 -0.128 0.043 -0.126 0.049 -0.123 0.054 -0.12 0.06 -0.117 0.065 -0.113 0.07 -0.11 0.076 -0.106 0.08 -0.103 0.085 -0.098 0.09 -0.094 0.094 -0.089 0.098 -0.086 0.102 -0.08 0.106 -0.075 0.11 -0.071 0.114 -0.065 0.116 -0.06 0.121 -0.054 0.123 -0.049 0.126 -0.042 0.128 -0.037 0.131 -0.03 0.134 -0.024 0.135 -0.017 0.138 -0.01 0.139 -0.004 0 0zm1.465 4.629c-0.123,-0.122 -0.124,-0.321 -0.002,-0.444 0.123,-0.123 0.322,-0.124 0.445,-0.001l-0.443 0.445zm1.866 1.855l-1.866 -1.855 0.443 -0.445 1.866 1.854 -0.443 0.446zm0.443 -0.446c0.123,0.123 0.124,0.322 0.002,0.445 -0.123,0.123 -0.322,0.123 -0.445,0.001l0.443 -0.446z"/>
   </g>
  </g>
 </g>
</svg>
